<svg width="601" height="168" viewBox="0 0 601 168" fill="none" xmlns="http://www.w3.org/2000/svg">
<path d="M61.5993 12.5H63.8139L65.3958 13.4512L66.6613 15.9878L68.8759 24.2317L71.7232 30.2561L73.9378 32.7927L76.4688 34.061L79.3161 34.378L82.1635 33.4268L84.6945 30.5732L85.9599 28.0366L87.2254 22.6463L87.8582 15.3537L89.1237 13.4512L89.7564 13.1341H93.8692L98.6148 14.7195L103.044 17.2561L107.473 20.7439L112.852 26.1341L115.699 29.6219L119.495 33.7439L122.975 36.5976L126.772 39.4512L130.885 41.9878L138.161 45.4756L143.223 47.6951L144.805 49.2805L144.489 52.1341L142.274 55.3049L140.06 57.5244L135.63 60.6951L131.201 63.2317L126.139 65.7683L118.23 68.939L114.75 70.2073L114.117 75.9146L116.332 80.9878L119.179 85.7439L122.659 93.0366L123.925 97.1585L124.241 99.061V106.037L122.659 109.841L121.394 111.744L120.444 112.061L121.394 107.622V103.183L120.128 98.7439V103.5L118.863 109.524L118.23 112.061V116.817L119.495 123.159V127.915L118.546 131.085L116.964 133.622L116.015 134.256V129.5L114.433 124.11L112.535 118.402V125.378L113.484 131.402L113.801 135.524L113.168 139.329L111.902 141.866L110.953 142.5L110.637 135.524L110.004 132.671L109.688 137.744L108.422 142.817L106.208 147.256L103.993 149.476L101.146 151.061L100.197 150.744L102.411 147.256L103.677 143.451L103.993 141.549V138.378L102.728 132.988L101.779 128.549L100.829 133.622V136.476L101.779 140.915L102.095 143.451L99.8803 142.5L97.3493 139.646L96.0838 136.476L95.4511 132.671L95.7675 124.11L92.6037 126.963L90.0728 129.817L88.1745 133.305L87.8582 134.573V138.695L88.4909 140.598L87.2254 140.28L85.6436 138.695L84.6945 136.793L83.7453 141.866L82.4799 144.72L80.2652 148.524L79.9489 149.793V152.646L80.898 155.5L79.3161 155.183L77.1015 153.28L76.1524 151.061V141.866L75.2033 138.061L74.5706 135.841H73.9378L73.6214 138.061L71.7232 141.232L70.7741 141.549V136.476L69.5086 133.305L67.6104 130.134L65.0794 127.28V126.646L63.8139 126.012L62.5484 124.744V124.11H61.9157V128.232L59.7011 136.159V140.598L60.6502 143.451L59.0683 142.817L57.1701 140.28L55.9046 137.427L56.221 141.549L57.4865 146.305L60.3338 151.061L57.4865 150.11L54.3228 147.573L52.1082 144.402L50.5263 140.915L49.5772 137.11V130.134L50.2099 124.427V122.524L47.679 128.866L46.7298 132.354V135.841L47.679 140.28L46.0971 139.329L43.8825 136.159L42.617 132.354V126.646L43.8825 120.622V116.817L42.3006 111.744L41.0352 108.256L40.4024 105.085V110.793L41.3515 114.598L42.3006 117.451L40.7188 116.5L38.5042 113.646L36.9223 110.159L36.2896 106.671V102.549L37.2387 97.4756L40.7188 87.6463L41.3515 85.7439L39.7697 85.4268L39.1369 88.5976L36.9223 93.9878L35.0241 97.1585L32.8095 100.012L29.9621 103.183L26.1657 106.671L21.4201 110.159L17.94 112.061L16.0418 112.695L19.8383 108.256L21.4201 104.451L22.0529 98.7439L23.002 93.6707L24.5838 89.8659L26.7984 86.378L30.2785 82.8902L34.7077 80.0366H35.6568L36.606 83.2073V79.4024L37.5551 77.1829L39.1369 75.5976L40.7188 74.6463H42.617L43.5661 76.8659L43.2498 78.1341L42.617 79.4024L42.3006 81.3049H43.2498L43.5661 78.7683L44.5152 77.1829L43.8825 75.9146L43.2498 74.0122L43.5661 70.5244L43.8825 69.8902L40.4024 68.939L33.7586 66.4024L26.4821 62.9146L21.1037 59.4268L17.94 56.8902L15.0927 54.0366L13.1944 50.8658L12.8781 48.6463L14.4599 46.7439L23.6347 42.3049L28.0639 40.0854L33.7586 36.2805L37.8714 32.7927L39.7697 30.8902H40.4024L41.0352 29.6219L43.2498 27.4024L46.0971 23.9146L52.1082 17.8902L56.5374 14.7195L60.3338 12.8171L61.5993 12.5ZM60.3338 18.2073V18.8415L61.9157 19.7927L63.8139 24.2317L66.0285 28.6707L66.3449 28.0366L64.4467 22.6463L62.8648 19.4756L61.5993 18.2073H60.3338ZM73.3051 50.2317L67.6104 50.8658L61.5993 52.4512L56.221 54.9878L52.1082 57.8415L48.9445 60.6951H49.8936L54.9555 57.5244L60.9666 54.6707L66.9776 52.7683L72.356 51.8171L76.1524 51.5H82.4799L89.44 52.4512H91.0219L89.7564 51.8171L83.7453 50.5488L80.2652 50.2317H73.3051ZM65.3958 57.2073L58.752 59.4268L52.7409 62.5976L48.6281 65.7683L46.4135 68.3049L46.7298 68.939L48.9445 66.7195L53.0573 63.8658L58.752 60.6951L64.763 58.1585L66.6613 57.5244L65.3958 57.2073ZM108.422 61.9634L110.321 64.5L111.902 66.4024V65.4512L109.688 62.5976L108.422 61.9634ZM70.1414 63.2317L64.763 64.1829L58.1192 66.4024L53.3737 68.939L51.7918 70.5244L53.69 69.8902L59.0683 67.3537L65.0794 65.4512L70.7741 64.1829L75.5197 63.5488V63.2317H70.1414ZM78.9998 65.4512L71.7232 66.0854L63.8139 67.6707L58.1192 69.5732L53.3737 71.7927L53.0573 73.378V75.5976L55.9046 74.9634L56.221 73.6951L57.8029 73.061L58.4356 72.7439H62.2321L69.825 73.6951L72.9887 74.0122L84.6945 68.939L90.7055 66.4024V66.0854L84.3781 65.4512H78.9998ZM94.502 67.3537L88.1745 70.2073L79.6325 74.3293L75.2033 76.5488L74.5706 81.3049L73.3051 84.1585L72.0396 86.061L69.5086 88.2805L66.3449 89.5488H61.5993L58.4356 87.9634L56.8537 86.378L55.9046 85.7439L53.69 88.5976L52.7409 88.9146L51.159 88.5976V90.8171L52.1082 93.3537L53.69 95.2561L56.8537 96.8415L61.2829 97.7927L62.8648 98.7439L63.8139 100.646V104.451L65.0794 103.183L65.3958 105.402L66.6613 105.719L67.9268 104.451L68.2431 106.354H70.1414L71.0905 105.402V104.768H71.7232L72.0396 106.354L72.356 106.671H74.8869L75.836 105.085H76.4688L77.7343 106.988H79.3161L80.5816 105.085H81.2144L82.4799 106.988H84.3781L85.3272 106.037L85.6436 104.768L86.9091 106.671L88.8073 106.354L89.1237 104.451L90.3891 106.037L91.3383 105.719L91.971 103.817L92.6037 104.768H93.2365V101.598L94.1856 99.378L95.7675 98.1097L101.146 96.5244L103.993 94.6219L105.575 91.4512V86.6951L104.626 78.7683L102.411 69.8902L99.5639 68.6219L95.4511 67.3537H94.502ZM52.7409 78.7683L51.4754 85.1098L51.159 88.2805L52.4245 86.6951L54.6391 83.5244L54.3228 78.7683H52.7409ZM109.688 89.8659L110.004 91.7683L112.852 100.329L114.117 106.988H114.433V102.866L113.484 98.1097L111.902 93.6707L110.004 89.8659H109.688ZM47.0462 90.1829L44.8316 94.6219L43.8825 97.7927V100.646H44.1989L45.4644 95.8902L47.3626 91.1341L47.0462 90.1829ZM32.8095 90.8171L29.9621 95.2561V96.2073L31.8604 93.9878L33.1259 91.7683L32.8095 90.8171ZM49.2608 93.9878L48.3117 97.4756L48.6281 99.6951V102.232L47.0462 103.5L47.3626 105.085L48.6281 106.354H49.8936L49.5772 104.134L50.5263 101.915V98.4268L49.5772 93.9878H49.2608ZM55.2719 99.061L55.9046 102.232L56.8537 108.89L57.4865 114.28L58.752 116.817L60.9666 119.037L63.4975 121.256L67.9268 126.012L69.5086 127.915H69.825L70.1414 126.329L72.6723 129.183L73.3051 128.232L74.5706 125.061L74.8869 124.744L76.1524 128.866H76.7852L78.0506 125.061L78.367 124.744L79.3161 126.963L79.6325 128.549L80.898 126.963L81.8471 125.695L82.7962 128.866L84.3781 127.28V126.646H85.0108L85.3272 129.183L87.5418 126.963L88.1745 127.598L92.9201 122.524L95.4511 120.305L97.9821 117.768L99.5639 114.915L100.513 106.354L101.779 99.061L99.2476 100.012L97.9821 105.085L96.7166 113.012L95.7675 115.549L95.4511 112.061H94.8183L93.5529 114.598L91.971 115.866V114.915L92.2874 114.28V112.061L90.7055 113.012L90.3891 115.866L88.8073 117.451L89.44 116.183V113.646L87.2254 114.28L86.5927 117.451L85.9599 118.719L85.3272 119.037L85.6436 114.915L83.429 115.232L82.7962 118.719L82.1635 119.988H81.5307L81.8471 118.085V115.549H79.3161L78.9998 120.305H77.7343V115.549H75.2033V118.085L75.5197 119.988L74.5706 119.671L73.9378 118.085L73.6214 115.232L73.3051 114.915H71.4068V117.768L71.7232 119.037L70.7741 118.719L70.1414 117.451L69.825 114.28L68.5595 113.646H67.294L67.6104 116.5V117.134L66.3449 115.549L66.0285 112.695L64.763 112.061L64.4467 112.378L64.763 115.232L65.0794 115.866L63.4975 114.28L62.2321 112.061L61.5993 113.329L61.2829 115.549L60.3338 112.695L58.752 103.5L57.4865 99.6951L55.2719 99.061ZM106.84 101.915V111.744L107.473 110.476L107.79 108.89V105.085L107.157 101.915H106.84ZM64.763 106.671L64.4467 106.988V109.841L66.3449 110.793V107.939L65.7121 106.671H64.763ZM91.6546 106.671L90.7055 107.622L90.3891 109.524L90.7055 110.793L91.971 110.159L92.6037 108.573L91.971 106.671H91.6546ZM68.2431 107.622L67.6104 108.256V111.427L69.5086 112.061L70.1414 109.841L69.825 107.939L68.2431 107.622ZM87.8582 107.622L87.2254 107.939L86.9091 110.793L87.2254 112.061L89.1237 111.744L89.44 111.427V108.89L88.4909 107.622H87.8582ZM72.0396 107.939L71.0905 109.524V112.378L72.0396 113.012H73.6214L73.9378 112.061V109.207L72.9887 107.939H72.0396ZM75.836 108.256L74.8869 109.841V113.329L75.2033 113.646H77.7343L78.0506 113.329V109.841L77.1015 108.256H75.836ZM79.9489 108.256L78.9998 109.841V113.329L79.3161 113.646H81.8471L82.1635 113.329V109.841L81.2144 108.256H79.9489ZM84.0617 108.256L83.429 108.89V112.695L83.7453 113.012H85.3272L85.9599 112.378V109.207L85.3272 108.256H84.0617ZM56.8537 119.988L57.1701 129.817H57.4865L57.8029 128.232V122.524L57.1701 119.988H56.8537Z" fill="black"/>
<path d="M77.4179 18.8415H80.5816L84.3781 19.4756L86.2763 20.1098L85.9599 22.9634L84.3781 28.3537L82.4798 31.2073L80.898 32.4756L79.9489 32.7927H77.4179L74.8869 31.5244L72.3559 28.6707L69.825 23.5976L69.1922 22.0122L69.5086 20.7439L74.5705 19.1585L77.4179 18.8415Z" fill="black"/>
<path d="M15.7254 63.5488H18.2564L20.1546 64.5L21.7365 66.4024L23.002 70.2073L24.9002 71.7927L35.0241 78.1341V78.7683L29.9621 81.6219L27.7475 82.8902L21.1037 79.7195L19.2055 79.0854L16.3582 79.4024L14.1436 80.3537H10.9798L8.44887 78.1341L7.49976 75.2805L7.81613 72.4268L9.08161 71.1585L12.8781 70.8415L13.1944 70.5244V65.7683L14.7763 63.8658L15.7254 63.5488Z" fill="black"/>
<path d="M140.059 63.8658H142.907L144.172 64.5L145.121 66.0854V69.2561L144.805 71.1585L147.652 70.5244L149.234 71.4756L150.183 73.061L150.5 74.0122V76.5488L149.234 79.0854L147.652 80.3537L147.02 80.6707H143.54L141.009 78.7683H138.794L126.139 85.1097L122.659 87.0122L121.394 86.6951L118.546 82.2561L117.913 80.9878L125.506 76.5488L132.467 72.4268L135.314 70.2073L136.896 66.0854L138.794 64.5L140.059 63.8658Z" fill="black"/>
<path d="M97.3493 70.8415L99.5639 71.1585L101.462 73.378L102.095 74.9634V76.8659L100.829 76.2317L99.2475 75.2805H96.0838L93.5529 75.9146V76.2317L97.0329 77.1829L99.8803 79.0854L100.513 80.3537V82.8902L99.5639 86.061L97.6657 88.5976L95.1347 89.8658L92.6037 90.1829L90.0728 89.5488L86.9091 87.9634L84.0617 85.4268L82.7962 82.8902L82.4798 80.0366L84.3781 74.9634L87.2254 73.6951L94.502 71.4756L97.3493 70.8415Z" fill="black"/>
<path d="M78.367 85.7439L79.9489 86.378L81.5307 88.9146L83.429 93.0366L84.3781 95.8902V97.7927L82.7962 99.6951H80.898L79.3161 98.1097L78.6834 95.8902L77.7343 98.4268L76.4688 99.6951H74.5706L72.9887 97.7927L73.3051 94.6219L75.5197 89.5488L77.1015 86.6951L78.367 85.7439Z" fill="black"/>
<path d="M38.8206 116.5L42.617 119.037L42.3006 121.89L41.6679 123.793L32.8095 129.183L29.013 131.719L27.7475 135.207L26.4821 138.378L24.5838 139.963L23.6347 140.28H21.1037L18.5728 139.012L17.6236 138.061L17.3073 137.11V134.89L18.8891 132.671L18.5728 132.037L17.3073 132.988L14.7763 132.671L13.1944 131.402L12.8781 130.768L12.5617 125.061L14.4599 122.841L15.7254 122.207H19.2055L23.002 124.11L26.1657 123.476L32.4931 120.305L38.8206 116.5Z" fill="black"/>
<path d="M119.812 117.134L124.241 119.354L130.252 122.524L133.732 123.793H135.947L139.11 122.524H141.641L143.54 123.476L145.121 125.378L145.438 126.329V128.866L144.489 130.768L143.223 131.719H141.009L140.376 132.354L140.692 134.256L141.009 134.89V137.11L139.743 139.329L137.529 140.598H134.681L132.783 139.646L131.201 137.744L129.936 132.988L128.67 131.402L123.292 127.915L120.761 126.329L120.128 119.988L119.812 117.134Z" fill="black"/>
<path d="M145.122 125.378L143.54 123.476L141.641 122.524H139.11L135.947 123.793H133.732L130.252 122.524L124.241 119.354L119.811 117.134L120.128 119.987L120.76 126.329L123.292 127.915L128.67 131.402L129.935 132.987L131.201 137.744L132.783 139.646L134.681 140.598H137.528L139.743 139.329L141.009 137.109V134.891L140.692 134.256L140.376 132.354L141.009 131.72H143.223L144.489 130.769L145.438 128.866V126.329L145.122 125.378ZM61.5993 12.5L60.3337 12.8174L56.5378 14.7197L52.1081 17.8906L46.0974 23.915L43.2497 27.4023L41.0349 29.6221L40.4021 30.8906H39.7693L37.8718 32.793L33.7585 36.2803L28.0642 40.085L23.6345 42.3047L14.4597 46.7441L12.8777 48.6465L13.1941 50.8662L15.0925 54.0361L17.9402 56.8906L21.1033 59.4268L26.4822 62.915L33.7585 66.4023L40.4021 68.9395L43.8826 69.8906L43.5661 70.5244L43.2497 74.0117L43.8826 75.915L44.5154 77.1826L43.5661 78.7686L43.2497 81.3047H42.3005L42.6169 79.4023L43.2497 78.1338L43.5661 76.8662L42.6169 74.6465H40.7185L39.1365 75.5977L37.5554 77.1826L36.6062 79.4023V83.207L35.657 80.0361H34.7077L30.2781 82.8906L26.7986 86.3779L24.5837 89.8662L23.0017 93.6709L22.0525 98.7441L21.4197 104.451L19.8386 108.256L16.0417 112.695L17.9402 112.061L21.4197 110.158L26.1658 106.671L29.9617 103.183L32.8093 100.012L35.0242 97.1582L36.9226 93.9883L39.1365 88.5977L39.7693 85.4268L41.3513 85.7441L40.7185 87.6465L37.239 97.4756L36.2898 102.549V106.671L36.9226 110.158L38.5046 113.646L40.7185 116.5L42.3005 117.451L41.3513 114.598L40.4021 110.793V105.085L41.0349 108.256L42.3005 111.744L43.8826 116.817V120.622L42.6169 126.646V132.354L43.8826 136.158L46.0974 139.329L47.6794 140.28L46.7302 135.842V132.354L47.6794 128.866L50.2097 122.524V124.427L49.5769 130.134V137.109L50.5261 140.915L52.1081 144.402L54.323 147.573L57.4861 150.109L60.3337 151.061L57.4861 146.305L56.2214 141.549L55.905 137.427L57.1697 140.28L59.0681 142.817L60.6501 143.451L59.7009 140.598V136.158L61.9158 128.231V124.109H62.5486V124.744L63.8142 126.012L65.0798 126.646V127.28L67.6101 130.134L69.5085 133.305L70.7742 136.476V141.549L71.7234 141.231L73.6218 138.061L73.9382 135.842H74.5701L75.2029 138.061L76.1521 141.866V151.061L77.1013 153.28L79.3161 155.183L80.8982 155.5L79.949 152.646V149.793L80.2654 148.524L82.4802 144.72L83.7449 141.866L84.6941 136.793L85.6433 138.695L87.2253 140.28L88.491 140.598L87.8581 138.695V134.573L88.1745 133.305L90.073 129.817L92.6033 126.964L95.7673 124.109L95.4509 132.671L96.0837 136.476L97.3493 139.646L99.8806 142.5L102.094 143.451L101.778 140.915L100.83 136.476V133.622L101.778 128.549L102.727 132.988L103.993 138.378V141.549L103.676 143.451L102.411 147.256L100.197 150.744L101.146 151.061L103.993 149.476L106.208 147.256L108.423 142.817L109.688 137.744L110.005 132.671L110.636 135.524L110.953 142.5L111.902 141.866L113.168 139.329L113.801 135.524L113.484 131.402L112.535 125.378V118.402L114.433 124.109L116.015 129.5V134.256L116.965 133.622L118.547 131.085L119.495 127.915V123.158L118.23 116.817V112.061L118.863 109.524L120.128 103.5V98.7441L121.393 103.183V107.622L120.444 112.061L121.393 111.744L122.659 109.842L124.241 106.036V99.0605L123.925 97.1582L122.659 93.0361L119.179 85.7441L116.332 80.9883L114.117 75.915L114.75 70.207L118.23 68.9395L126.139 65.7686L131.201 63.2314L135.631 60.6953L140.059 57.5244L142.274 55.3047L144.489 52.1338L144.805 49.2803L143.223 47.6953L138.161 45.4756L130.885 41.9883L126.772 39.4512L122.975 36.5977L119.495 33.7441L115.699 29.6221L112.851 26.1338L107.473 20.7441L103.044 17.2559L98.615 14.7197L93.8689 13.1338H89.7566L89.1238 13.4512L87.8581 15.3535L87.2253 22.6465L85.9597 28.0361L84.6941 30.5732L82.1638 33.4268L79.3161 34.3779L76.4685 34.0605L73.9382 32.793L71.7234 30.2559L68.8757 24.2314L66.6609 15.9883L65.3962 13.4512L63.8142 12.5H61.5993ZM32.4929 120.305L26.1658 123.476L23.0017 124.109L19.2058 122.207H15.7253L14.4597 122.842L12.5613 125.061L12.8777 130.769L13.1941 131.402L14.7761 132.671L17.3074 132.988L18.573 132.036L18.8894 132.671L17.3074 134.891V137.109L17.6238 138.061L18.573 139.012L21.1033 140.28H23.6345L24.5837 139.964L26.4822 138.378L27.7478 135.207L29.0134 131.72L32.8093 129.183L41.6677 123.793L42.3005 121.891L42.6169 119.036L38.8201 116.5L32.4929 120.305ZM57.1697 119.988L57.8025 122.524V128.231L57.4861 129.817H57.1697L56.8533 119.988H57.1697ZM100.513 106.354L99.5642 114.915L97.9822 117.769L95.4509 120.305L92.9197 122.524L88.1745 127.598L87.5417 126.964L85.3269 129.183L85.0105 126.646H84.3777V127.28L82.7966 128.866L81.8474 125.695L80.8982 126.964L79.6326 128.549L79.3161 126.964L78.3669 124.744L78.0505 125.061L76.7849 128.866H76.1521L74.8865 124.744L74.5701 125.061L73.3054 128.231L72.6726 129.183L70.1413 126.329L69.8249 127.915H69.5085L67.9265 126.012L63.4978 121.256L60.9665 119.036L58.7517 116.817L57.4861 114.28L56.8533 108.891L55.905 102.231L55.2722 99.0605L57.4861 99.6953L58.7517 103.5L60.3337 112.695L61.2829 115.549L61.5993 113.329L62.2322 112.061L63.4978 114.28L65.0798 115.866L64.7634 115.231L64.447 112.378L64.7634 112.061L66.0281 112.695L66.3445 115.549L67.6101 117.134V116.5L67.2937 113.646H68.5593L69.8249 114.28L70.1413 117.451L70.7742 118.72L71.7234 119.036L71.407 117.769V114.915H73.3054L73.6218 115.231L73.9382 118.085L74.5701 119.671L75.5193 119.988L75.2029 118.085V115.549H77.7341V120.305H78.9997L79.3161 115.549H81.8474V118.085L81.531 119.988H82.1638L82.7966 118.72L83.4294 115.231L85.6433 114.915L85.3269 119.036L85.9597 118.72L86.5925 117.451L87.2253 114.28L89.4402 113.646V116.183L88.8074 117.451L90.3894 115.866L90.7058 113.012L92.2878 112.061V114.28L91.9714 114.915V115.866L93.5525 114.598L94.8181 112.061H95.4509L95.7673 115.549L96.7165 113.012L97.9822 105.085L99.2478 100.012L101.778 99.0605L100.513 106.354ZM25.5652 115.799C25.3141 115.983 25.0514 116.151 24.7781 116.301L23.948 116.754L23.9509 116.756L29.1091 114.171L30.6384 113.251L30.5476 113.05C30.4424 112.818 30.3514 112.58 30.2722 112.339L25.5652 115.799ZM77.1013 108.256L78.0505 109.842V113.329L77.7341 113.646H75.2029L74.8865 113.329V109.842L75.8357 108.256H77.1013ZM81.2146 108.256L82.1638 109.842V113.329L81.8474 113.646H79.3161L78.9997 113.329V109.842L79.949 108.256H81.2146ZM72.989 107.939L73.9382 109.207V112.061L73.6218 113.012H72.0398L71.0906 112.378V109.524L72.0398 107.939H72.989ZM85.3269 108.256L85.9597 109.207V112.378L85.3269 113.012H83.7449L83.4294 112.695V108.891L84.0613 108.256H85.3269ZM69.8249 107.939L70.1413 109.842L69.5085 112.061L67.6101 111.427V108.256L68.2429 107.622L69.8249 107.939ZM88.491 107.622L89.4402 108.891V111.427L89.1238 111.744L87.2253 112.061L86.9089 110.793L87.2253 107.939L87.8581 107.622H88.491ZM107.157 101.915L107.79 105.085V108.891L107.473 110.476L106.841 111.744V101.915H107.157ZM65.7117 106.671L66.3445 107.939V110.793L64.447 109.842V106.987L64.7634 106.671H65.7117ZM91.9714 106.671L92.6033 108.573L91.9714 110.158L90.7058 110.793L90.3894 109.524L90.7058 107.622L91.655 106.671H91.9714ZM95.4509 67.3535L99.5642 68.6221L102.411 69.8906L104.626 78.7686L105.575 86.6953V91.4512L103.993 94.6221L101.146 96.5244L95.7673 98.1094L94.1853 99.3779L93.2361 101.598V104.769H92.6033L91.9714 103.817L91.3386 105.72L90.3894 106.036L89.1238 104.451L88.8074 106.354L86.9089 106.671L85.6433 104.769L85.3269 106.036L84.3777 106.987H82.4802L81.2146 105.085H80.5818L79.3161 106.987H77.7341L76.4685 105.085H75.8357L74.8865 106.671H72.3562L72.0398 106.354L71.7234 104.769H71.0906V105.402L70.1413 106.354H68.2429L67.9265 104.451L66.6609 105.72L65.3962 105.402L65.0798 103.183L63.8142 104.451V100.646L62.865 98.7441L61.2829 97.793L56.8533 96.8418L53.6902 95.2559L52.1081 93.3535L51.1589 90.8174V88.5977L52.741 88.915L53.6902 88.5977L55.905 85.7441L56.8533 86.3779L58.4353 87.9639L61.5993 89.5488H66.3445L69.5085 88.2803L72.0398 86.0605L73.3054 84.1582L74.5701 81.3047L75.2029 76.5488L79.6326 74.3291L88.1745 70.207L94.5017 67.3535H95.4509ZM110.005 89.8662L111.902 93.6709L113.484 98.1094L114.433 102.866V106.987H114.117L112.851 100.329L110.005 91.7686L109.688 89.8662H110.005ZM49.5769 93.9883L50.5261 98.4268V101.915L49.5769 104.134L49.8933 106.354H48.6277L47.363 105.085L47.0466 103.5L48.6277 102.231V99.6953L48.3113 97.4756L49.2605 93.9883H49.5769ZM47.363 91.1338L45.4646 95.8906L44.199 100.646H43.8826V97.793L44.8318 94.6221L47.0466 90.1826L47.363 91.1338ZM77.1013 86.6953L75.5193 89.5488L73.3054 94.6221L72.989 97.793L74.5701 99.6953H76.4685L77.7341 98.4268L78.6833 95.8906L79.3161 98.1094L80.8982 99.6953H82.7966L84.3777 97.793V95.8906L83.4294 93.0361L81.531 88.915L79.949 86.3779L78.3669 85.7441L77.1013 86.6953ZM33.1257 91.7686L31.8601 93.9883L29.9617 96.207V95.2559L32.8093 90.8174L33.1257 91.7686ZM94.5017 71.4756L87.2253 73.6953L84.3777 74.9639L82.4802 80.0361L82.7966 82.8906L84.0613 85.4268L86.9089 87.9639L90.073 89.5488L92.6033 90.1826L95.1345 89.8662L97.6658 88.5977L99.5642 86.0605L100.513 82.8906V80.3535L99.8806 79.085L97.0329 77.1826L93.5525 76.2314V75.915L96.0837 75.2803H99.2478L100.83 76.2314L102.094 76.8662V74.9639L101.462 73.3779L99.5642 71.1582L97.3493 70.8418L94.5017 71.4756ZM54.323 78.7686L54.6394 83.5244L52.4245 86.6953L51.1589 88.2803L51.4753 85.1094L52.741 78.7686H54.323ZM15.7253 63.5488L14.7761 63.8662L13.1941 65.7686V70.5244L12.8777 70.8418L9.08177 71.1582L7.81615 72.4268L7.49974 75.2803L8.44896 78.1338L10.9802 80.3535H14.1433L16.3581 79.4023L19.2058 79.085L21.1033 79.7197L27.7478 82.8906L29.9617 81.6221L35.0242 78.7686V78.1338L24.9001 71.793L23.0017 70.207L21.7361 66.4023L20.155 64.5L18.2566 63.5488H15.7253ZM84.3777 65.4512L90.7058 66.085V66.4023L84.6941 68.9395L72.989 74.0117L69.8249 73.6953L62.2322 72.7441H58.4353L57.8025 73.0605L56.2214 73.6953L55.905 74.9639L53.0574 75.5977V73.3779L53.3738 71.793L58.1189 69.5732L63.8142 67.6709L71.7234 66.085L78.9997 65.4512H84.3777ZM75.5193 63.2314V63.5488L70.7742 64.1826L65.0798 65.4512L59.0681 67.3535L53.6902 69.8906L51.7917 70.5244L53.3738 68.9395L58.1189 66.4023L64.7634 64.1826L70.1413 63.2314H75.5193ZM66.6609 57.5244L64.7634 58.1582L58.7517 60.6953L53.0574 63.8662L48.9441 66.7197L46.7302 68.9395L46.4138 68.3047L48.6277 65.7686L52.741 62.5977L58.7517 59.4268L65.3962 57.207L66.6609 57.5244ZM109.688 62.5977L111.902 65.4512V66.4023L110.32 64.5L108.423 61.9639L109.688 62.5977ZM80.2654 50.2314L83.7449 50.5488L89.7566 51.8174L91.0222 52.4512H89.4402L82.4802 51.5H76.1521L72.3562 51.8174L66.9773 52.7686L60.9665 54.6709L54.9558 57.5244L49.8933 60.6953H48.9441L52.1081 57.8418L56.2214 54.9883L61.5993 52.4512L67.6101 50.8662L73.3054 50.2314H80.2654ZM77.4177 18.8418L74.5701 19.1582L69.5085 20.7441L69.1921 22.0117L69.8249 23.5977L72.3562 28.6709L74.8865 31.5244L77.4177 32.793H79.949L80.8982 32.4756L82.4802 31.207L84.3777 28.3535L85.9597 22.9639L86.2761 20.1094L84.3777 19.4756L80.5818 18.8418H77.4177ZM61.5993 18.207L62.865 19.4756L64.447 22.6465L66.3445 28.0361L66.0281 28.6709L63.8142 24.2314L61.9158 19.793L60.3337 18.8418V18.207H61.5993ZM150.183 73.0605L149.234 71.4756L147.652 70.5244L144.805 71.1582L145.122 69.2559V66.085L144.173 64.5L142.907 63.8662H140.059L138.794 64.5L136.896 66.085L135.314 70.207L132.467 72.4268L125.507 76.5488L117.914 80.9883L118.547 82.2559L121.393 86.6953L122.659 87.0117L126.139 85.1094L138.794 78.7686H141.009L143.54 80.6709H147.019L147.652 80.3535L149.234 79.085L150.5 76.5488V74.0117L150.183 73.0605ZM157.5 76.5488C157.5 77.6334 157.248 78.7033 156.763 79.6738L155.498 82.21C155.046 83.1159 154.403 83.9135 153.613 84.5469L152.031 85.8154C151.646 86.124 151.23 86.3913 150.789 86.6123L150.156 86.9287C149.183 87.4165 148.108 87.6709 147.019 87.6709H143.54C142.043 87.6709 140.587 87.1899 139.384 86.3018L129.442 91.2832L130.616 95.1045L130.681 95.3281C130.742 95.5527 130.792 95.7802 130.83 96.0098L131.146 97.9131L131.187 98.1982C131.223 98.4842 131.241 98.7722 131.241 99.0605V106.036C131.241 106.958 131.059 107.872 130.705 108.724L129.123 112.528C128.954 112.934 128.747 113.322 128.506 113.688L133.095 116.109L134.772 116.721L136.506 116.027L136.819 115.91C137.555 115.655 138.329 115.524 139.11 115.524H141.641L142.049 115.536C142.997 115.591 143.925 115.84 144.777 116.267L146.676 117.218L146.995 117.388C147.728 117.804 148.381 118.35 148.922 119L150.504 120.902L150.707 121.158C151.166 121.766 151.523 122.445 151.763 123.169L152.08 124.12C152.317 124.833 152.438 125.578 152.438 126.329V128.866C152.438 129.951 152.186 131.021 151.702 131.991L150.753 133.894C150.328 134.744 149.736 135.498 149.012 136.11L148.695 136.364L148.009 136.88V137.109C148.009 138.325 147.692 139.521 147.09 140.577L145.824 142.797C145.205 143.882 144.306 144.782 143.221 145.403L141.008 146.672C139.948 147.278 138.749 147.598 137.528 147.598H134.681C133.729 147.598 132.787 147.403 131.915 147.027L131.545 146.855L129.647 145.904C128.783 145.471 128.018 144.865 127.4 144.122L125.819 142.22C125.251 141.536 124.818 140.751 124.544 139.908L124.436 139.544L123.618 136.469L123.49 136.386L122.904 137.326C122.378 138.169 121.679 138.89 120.853 139.442L120.169 139.898L120.073 140.478C119.959 141.165 119.742 141.831 119.431 142.454L118.166 144.991C117.622 146.081 116.804 147.01 115.792 147.687L114.843 148.32C114.289 148.69 113.692 148.973 113.075 149.169L112.471 150.381C112.136 151.054 111.694 151.668 111.163 152.2L108.948 154.42C108.546 154.823 108.096 155.175 107.609 155.469L107.398 155.592L104.551 157.177C102.834 158.133 100.792 158.323 98.9275 157.7L97.9783 157.383C95.9359 156.7 94.3211 155.116 93.6003 153.087C92.8795 151.058 93.1325 148.809 94.2868 146.991L94.3786 146.846L93.3249 145.659C92.1035 146.826 90.5158 147.499 88.864 147.587C88.8161 147.693 88.7667 147.799 88.7136 147.903L88.53 148.241L86.949 150.957V151.513L87.5398 153.291C88.3272 155.658 87.7955 158.266 86.1433 160.136C84.4911 162.005 81.9685 162.854 79.5222 162.363L77.9402 162.046C76.7628 161.81 75.6655 161.276 74.7546 160.493L72.5398 158.59C71.8291 157.979 71.2496 157.233 70.8337 156.396L70.6658 156.033L69.7165 153.813C69.3446 152.944 69.1521 152.007 69.1521 151.061V148.354C68.2752 148.146 67.4349 147.77 66.6833 147.229C66.6509 147.205 66.6205 147.179 66.5886 147.155C66.5157 147.272 66.4392 147.387 66.3591 147.5C67.8412 150.008 67.6169 153.172 65.7908 155.445C63.9562 157.728 60.8939 158.628 58.116 157.7L55.2683 156.749C54.5822 156.52 53.9361 156.186 53.3533 155.76L53.1081 155.571L49.9441 153.034C49.4239 152.617 48.9655 152.128 48.5837 151.581L46.3689 148.411C46.123 148.059 45.9105 147.685 45.7331 147.294L45.5798 146.957C45.0595 146.793 44.5529 146.568 44.072 146.279L42.49 145.328C41.7529 144.885 41.1045 144.31 40.5769 143.634L40.3581 143.338L38.1433 140.167C37.8054 139.683 37.5301 139.159 37.324 138.606L37.24 138.368L36.2253 135.318L34.8103 136.264L34.3279 137.595C34.3027 137.664 34.2761 137.733 34.2488 137.802L32.9831 140.973C32.6064 141.917 32.0294 142.766 31.2937 143.462L30.9695 143.751L29.071 145.336C28.4004 145.896 27.6303 146.326 26.8015 146.603L25.8533 146.92C25.1382 147.159 24.3885 147.28 23.6345 147.28H21.1033C20.0146 147.28 18.9408 147.027 17.9675 146.539L15.4363 145.271C14.8475 144.975 14.3039 144.599 13.821 144.152L13.6179 143.956L12.6687 143.005C11.9978 142.333 11.4714 141.532 11.1208 140.652L10.9812 140.271L10.6648 139.319C10.5346 138.928 10.4409 138.526 10.3816 138.119L8.81517 136.864C8.02531 136.231 7.38237 135.433 6.93041 134.527L6.614 133.894C6.24139 133.147 6.00615 132.34 5.91771 131.512L5.88841 131.155L5.57201 125.448C5.47233 123.649 6.07088 121.881 7.24193 120.512L9.14037 118.292L9.37377 118.032C9.72852 117.657 10.1241 117.324 10.5515 117.036C10.442 116.898 10.336 116.755 10.2361 116.606C8.47844 113.997 8.67774 110.536 10.7224 108.146L13.7995 104.546L14.573 102.687L15.0954 97.9727L15.1286 97.7139C15.1414 97.628 15.1566 97.5424 15.1726 97.457L16.1218 92.3838L16.198 92.0254C16.2839 91.6699 16.3973 91.3214 16.5378 90.9834L18.1199 87.1787L18.2419 86.9033C18.3431 86.6867 18.456 86.4757 18.5788 86.2705L18.4734 86.2207L18.448 86.2119L18.1648 86.2441L16.906 86.7852C16.0332 87.16 15.0932 87.3535 14.1433 87.3535H10.9802C9.28203 87.3535 7.64177 86.7359 6.36498 85.6162L3.83373 83.3975C2.95735 82.6289 2.28718 81.6544 1.88353 80.5635L1.80638 80.3438L0.857164 77.4893C0.53829 76.5303 0.431353 75.5132 0.542711 74.5088L0.859117 71.6553L0.89818 71.3613C1.12393 69.8954 1.80984 68.536 2.86107 67.4824L4.1267 66.2139L4.35033 66C4.92033 65.4772 5.57012 65.0571 6.27025 64.75C6.45639 63.4843 6.98599 62.2867 7.81224 61.293L9.39427 59.3906L9.55345 59.2061C9.68268 59.0612 9.81755 58.9221 9.95775 58.7891C9.72615 58.5388 9.51074 58.2743 9.3181 57.9932L9.08666 57.6318L7.18822 54.4619C6.7098 53.6628 6.39582 52.7756 6.26439 51.8535L5.94798 49.6338C5.66902 47.676 6.23147 45.6915 7.49584 44.1709L9.07787 42.2686L9.32396 41.9873C9.91644 41.3476 10.624 40.8231 11.4109 40.4424L20.5515 36.0195L24.5378 34.0215L29.5349 30.6826L33.1169 27.6465L34.8142 25.9463L35.0661 25.7061C35.2013 25.5834 35.3416 25.4675 35.4851 25.3564C35.6683 25.1181 35.8668 24.8912 36.0798 24.6777L38.0456 22.707L40.6745 19.4883L40.9021 19.2236C40.98 19.1373 41.0602 19.053 41.1423 18.9707L47.1531 12.9463L47.3611 12.7451C47.5735 12.5491 47.7987 12.3666 48.0339 12.1982L52.4626 9.02734L52.6892 8.87207C52.9182 8.72134 53.1558 8.58384 53.4011 8.46094L57.198 6.55859L57.5447 6.39648C57.8963 6.24373 58.2603 6.12063 58.6326 6.02734L59.8982 5.70996L60.3181 5.61816C60.7403 5.53956 61.1693 5.5 61.5993 5.5H63.8142L64.0515 5.50391C65.2399 5.54426 66.4003 5.88684 67.4216 6.50098L69.0027 7.45215L69.2146 7.58496C70.2578 8.26404 71.1029 9.20966 71.6599 10.3262L72.7009 12.415C73.0597 12.3156 73.4254 12.2424 73.7956 12.2012L76.6433 11.8848L77.03 11.8525C77.1591 11.8454 77.2884 11.8418 77.4177 11.8418H80.5818L80.8708 11.8477C81.1603 11.8596 81.4491 11.8897 81.7351 11.9375L81.7497 11.9404C81.8377 11.783 81.9297 11.6273 82.03 11.4766L83.2956 9.57422L83.5603 9.20312C84.2049 8.35891 85.0348 7.67101 85.988 7.19336L86.6199 6.87598L86.99 6.7041C87.8625 6.32871 88.8039 6.13379 89.7566 6.13379H93.8689L94.1521 6.13965C94.8102 6.16626 95.4621 6.28613 96.0876 6.49512L100.833 8.08008L101.158 8.19824C101.48 8.32394 101.793 8.47342 102.093 8.64551L106.523 11.1816L106.744 11.3135C106.962 11.4493 107.173 11.5977 107.375 11.7568L111.803 15.2441L112.125 15.5127C112.229 15.6052 112.33 15.7012 112.428 15.7998L117.806 21.1895L118.047 21.4424C118.125 21.5287 118.201 21.6169 118.274 21.707L120.996 25.041L124.31 28.6387L127.298 31.0889L130.725 33.665L134.244 35.8359L141.078 39.1104L146.034 41.2842L146.331 41.4229C147.014 41.7615 147.639 42.21 148.178 42.751L149.76 44.3359C151.26 45.8389 151.996 47.9415 151.762 50.0518L151.446 52.9053C151.317 54.0692 150.898 55.1825 150.227 56.1426L148.325 58.8652C149.069 59.4132 149.7 60.105 150.178 60.9043L151.128 62.4902L151.246 62.6953C151.642 63.4106 151.907 64.188 152.034 64.9912L152.842 65.4766L153.203 65.71C154.028 66.278 154.724 67.0174 155.24 67.8799L156.189 69.4658L156.377 69.7988C156.555 70.1368 156.705 70.4887 156.826 70.8516L157.142 71.8027L157.225 72.0713C157.407 72.7016 157.5 73.3548 157.5 74.0117V76.5488Z" fill="white"/>
<path d="M56.5615 43.8027L58.3389 41.8682L59.9453 43.3516L58.1885 45.1016C57.7419 44.7233 57.1995 44.2904 56.5615 43.8027ZM58.6123 41.5742L60.6973 39.3047C60.7565 39.6556 60.9023 40.002 61.1348 40.3438C61.3717 40.6855 61.6429 41.0251 61.9482 41.3623L60.2324 43.0713L58.6123 41.5742ZM62.2354 41.6494C62.5225 41.9639 62.8164 42.276 63.1172 42.5859C63.4225 42.8958 63.6937 43.2057 63.9307 43.5156L62.4951 45.1562L60.5264 43.3447L62.2354 41.6494ZM60.1846 47.7471C60.1846 47.1637 59.6195 46.3708 58.4893 45.3682L60.2393 43.625L62.2354 45.457L60.1846 47.7881C60.1846 47.7744 60.1846 47.7607 60.1846 47.7471ZM66.8906 44.8555C66.8815 45.0514 66.877 45.2747 66.877 45.5254C66.877 45.7715 66.9134 46.2318 66.9863 46.9062C66.2116 47.0931 65.3115 47.4417 64.2861 47.9521C64.6826 46.2887 65.6921 44.2562 67.3145 41.8545L67.3623 41.7793L66.624 40.6172C66.3643 40.2298 66.1159 39.8743 65.8789 39.5508C65.7376 39.3639 65.5485 39.25 65.3115 39.209C65.0745 39.168 64.8376 39.1475 64.6006 39.1475C64.8923 38.7965 65.2272 38.457 65.6055 38.1289C65.9837 37.7962 66.4919 37.4613 67.1299 37.124C67.4626 37.7347 67.6882 38.1471 67.8066 38.3613C68.0892 38.8626 68.3444 39.307 68.5723 39.6943L68.7021 39.9062L68.8457 39.7012C69.0098 39.487 69.1761 39.2682 69.3447 39.0449C69.5179 38.8216 69.6888 38.6051 69.8574 38.3955C70.0306 38.1813 70.2015 37.9671 70.3701 37.7529C70.5433 37.5387 70.721 37.3223 70.9033 37.1035C71.1175 37.1901 71.3271 37.2767 71.5322 37.3633C71.7373 37.4499 71.9378 37.5342 72.1338 37.6162C72.5804 37.8031 72.9541 37.9626 73.2549 38.0947L71.9561 40.248C71.3818 39.7194 70.8122 39.3617 70.2471 39.1748C70.0557 39.3844 69.8825 39.585 69.7275 39.7764C69.5771 39.9632 69.4609 40.1068 69.3789 40.207C69.2969 40.3027 69.2012 40.4235 69.0918 40.5693L69.1465 40.6514C69.9167 41.9639 70.7962 43.3037 71.7852 44.6709C72.0312 45.0127 72.3138 45.2565 72.6328 45.4023C72.7969 45.498 72.9883 45.5641 73.207 45.6006C72.3457 46.512 71.4821 47.3096 70.6162 47.9932C70.5068 47.7744 70.3952 47.5557 70.2812 47.3369C70.1719 47.1136 70.0078 46.7832 69.7891 46.3457C69.0098 44.7734 68.3877 43.5703 67.9229 42.7363L67.7793 42.4834L67.6357 42.7363C67.1709 43.5977 66.9225 44.304 66.8906 44.8555ZM81.123 40.6104C82.0983 41.3896 82.8525 42.2259 83.3857 43.1191C82.3467 45.2383 80.7516 46.7946 78.6006 47.7881C75.5472 46.5576 74.0205 44.696 74.0205 42.2031C74.0205 42.0208 74.0296 41.8363 74.0479 41.6494C75.4697 39.5895 77.0465 38.2087 78.7783 37.5068C79.7262 38.1676 81.0228 38.71 82.668 39.1338L81.123 40.6104ZM78.6416 39.4619C78.6006 39.9222 78.5801 40.3301 78.5801 40.6855C78.5801 41.041 78.5846 41.3395 78.5938 41.5811C78.8444 41.3486 79.1019 41.1162 79.3662 40.8838C79.6305 40.6514 79.888 40.4144 80.1387 40.1729C79.7467 39.8675 79.2477 39.6305 78.6416 39.4619ZM78.6074 41.916C78.6302 42.4674 78.6735 43.0166 78.7373 43.5635C78.2633 43.6501 77.7051 43.9622 77.0625 44.5C77.4362 44.8418 77.8623 45.154 78.3408 45.4365C78.8239 45.7191 79.2751 45.8604 79.6943 45.8604C79.8128 45.8604 79.9313 45.8512 80.0498 45.833C80.8018 45.71 81.2233 45.375 81.3145 44.8281C81.3372 44.6823 81.3486 44.541 81.3486 44.4043C81.3486 44.0215 81.2598 43.682 81.082 43.3857C80.9043 43.085 80.6126 42.7933 80.207 42.5107C79.8014 42.2236 79.2682 42.0254 78.6074 41.916ZM76.5566 44.001C76.6751 43.7412 76.7435 43.4427 76.7617 43.1055L76.8232 40.7266C76.8278 40.5215 76.7594 40.2572 76.6182 39.9336C76.5452 39.9974 76.4792 40.0726 76.4199 40.1592C76.0052 40.7152 75.7979 41.3395 75.7979 42.0322C75.7979 42.7842 76.0508 43.4404 76.5566 44.001ZM83.8369 39.6602C85.1813 38.9036 86.471 38.1859 87.7061 37.5068C88.7497 37.9762 89.7454 38.3203 90.6934 38.5391L88.793 39.8584C88.5013 39.7946 88.2279 39.6989 87.9727 39.5713C87.722 39.4391 87.501 39.3503 87.3096 39.3047C87.1227 39.2591 86.9541 39.2363 86.8037 39.2363C86.6579 39.2363 86.5257 39.3092 86.4072 39.4551C86.2933 39.6009 86.2363 39.7354 86.2363 39.8584C86.2363 39.9814 86.2386 40.0658 86.2432 40.1113L86.2363 41.9775L88.7314 40.4121C89.848 41.4147 90.8848 42.5791 91.8418 43.9053C91.459 45.0173 91.0146 46.0905 90.5088 47.125C90.0029 48.1549 89.3558 49.1051 88.5674 49.9756C88.221 50.3538 87.8906 50.543 87.5762 50.543C87.3893 50.543 87.2207 50.4837 87.0703 50.3652C86.9199 50.2513 86.7878 50.1396 86.6738 50.0303C86.5599 49.9255 86.4414 49.8206 86.3184 49.7158C87.5898 49.4059 88.4762 48.7679 88.9775 47.8018C89.3239 47.1318 89.4971 46.4642 89.4971 45.7988C89.4971 45.5026 89.4538 45.1654 89.3672 44.7871C89.2806 44.4043 88.9889 43.8232 88.4922 43.0439C88.1823 42.5518 87.8177 42.3057 87.3984 42.3057C87.1478 42.3057 86.8789 42.3923 86.5918 42.5654C86.5143 42.611 86.3958 42.6862 86.2363 42.791L86.2295 44.8486C86.2204 45.0309 86.266 45.1517 86.3662 45.2109C86.471 45.2656 86.6009 45.3203 86.7559 45.375C86.9154 45.4297 87.125 45.5003 87.3848 45.5869C87.6491 45.6689 87.9658 45.7122 88.335 45.7168L86.8311 47.7881C85.637 47.5192 84.6117 47.166 83.7549 46.7285C84.0739 45.498 84.2334 44.2949 84.2334 43.1191C84.2334 41.9388 84.1012 40.7858 83.8369 39.6602ZM92.0537 43.8027L93.8311 41.8682L95.4375 43.3516L93.6807 45.1016C93.234 44.7233 92.6917 44.2904 92.0537 43.8027ZM94.1045 41.5742L96.1895 39.3047C96.2487 39.6556 96.3945 40.002 96.627 40.3438C96.8639 40.6855 97.1351 41.0251 97.4404 41.3623L95.7246 43.0713L94.1045 41.5742ZM97.7275 41.6494C98.0146 41.9639 98.3086 42.276 98.6094 42.5859C98.9147 42.8958 99.1859 43.2057 99.4229 43.5156L97.9873 45.1562L96.0186 43.3447L97.7275 41.6494ZM95.6768 47.7471C95.6768 47.1637 95.1117 46.3708 93.9814 45.3682L95.7314 43.625L97.7275 45.457L95.6768 47.7881C95.6768 47.7744 95.6768 47.7607 95.6768 47.7471Z" fill="white"/>
<path d="M181.5 100.625C181.833 96.75 182 93.0625 182 89.5625C182 86.0625 181.854 82.75 181.562 79.625C180.979 73.125 178.791 68 175 64.25C184.75 63.7917 194.104 61.7917 203.062 58.25C193.979 53.7083 183.104 51.4375 170.437 51.4375C169.771 51.4375 169.104 51.4375 168.437 51.4375L189 36.0625C208.208 39.0208 222.458 45.8333 231.75 56.5C241.083 67.1667 246.104 81.2083 246.812 98.625L210 130.062C198.125 124.062 184.041 119.083 167.75 115.125L181.5 100.625ZM206 59.875C204.708 62.25 203.687 64.5417 202.937 66.75C202.187 68.9167 201.812 71 201.812 73C201.812 75 201.833 77.5417 201.875 80.625C201.958 83.6667 202.104 86.5417 202.312 89.25C202.521 91.9583 203.25 95.1458 204.5 98.8125C203.625 98.7292 202.771 98.6875 201.937 98.6875C197.729 98.6875 193.729 99.5417 189.937 101.25C199.937 108.542 207.708 112.188 213.25 112.188C215.541 112.188 217.458 111.542 219 110.25C223.708 106.292 226.062 100.583 226.062 93.125C226.062 86.5 224.333 80.2917 220.875 74.5C217.416 68.6667 212.458 63.7917 206 59.875ZM253.5 81.9375C263.208 75.4375 271.271 69.5417 277.687 64.25C280.896 65.625 284.125 68.0833 287.375 71.625C294.416 79.1667 298.583 87.0417 299.875 95.25C300.041 96.2083 300.125 97.125 300.125 98C300.125 100.75 299.354 102.979 297.812 104.688L277.062 131.125L250.312 117.938C253.146 112.062 254.562 106.979 254.562 102.688L254.437 88.125C254.312 85.125 254 83.0625 253.5 81.9375ZM270.312 79.75L270.125 106.312C270.5 108.354 271.937 109.958 274.437 111.125C276.937 112.25 278.583 112.812 279.375 112.812C280.208 112.812 280.771 112.771 281.062 112.688C284.729 111.854 286.562 109.542 286.562 105.75C286.562 104.875 286.458 103.896 286.25 102.812C284.833 95.9375 282.771 90.75 280.062 87.25C277.396 83.7083 274.146 81.2083 270.312 79.75ZM327.75 73.625L335.062 64.5L355 78.9375L353.125 86.3125L352.312 106.438C352.312 106.562 352.312 106.688 352.312 106.812C352.312 108.854 352.937 110.542 354.187 111.875C355.437 113.167 356.854 114.146 358.437 114.812L345.937 130.062C342.854 127.646 340.479 125.5 338.812 123.625C337.187 121.75 336.375 117.896 336.375 112.062C336.375 111.646 336.375 111.208 336.375 110.75L336.812 87.625C336.812 85.875 334.146 82.9583 328.812 78.875L326.312 82.8125L325.125 106.438C325.125 106.562 325.125 106.688 325.125 106.812C325.125 108.854 325.75 110.542 327 111.875C328.25 113.167 329.687 114.146 331.312 114.812L318.812 130.062L305.625 119.375C308 116.5 309.187 113.625 309.187 110.75L309.687 82.375C309.687 80.375 308.146 78.375 305.062 76.375L314.5 64.5L327.75 73.625ZM393.125 130.062L363.187 118.125C364.312 111.875 364.875 105.375 364.875 98.625C364.875 91.8333 364.229 84.75 362.937 77.375L384.5 64.6875V64.5L384.625 64.5625H384.687L409 82L383.687 108.625C385.396 110.667 387.291 111.792 389.375 112C391.458 112.208 393.166 112.312 394.5 112.312C395.875 112.312 397.479 112.25 399.312 112.125C401.187 111.958 403.479 111.833 406.187 111.75C403.979 114.833 401.791 117.896 399.625 120.938C397.458 123.979 395.291 127.021 393.125 130.062ZM382.75 81.375C380.333 81.375 379.125 84.6667 379.125 91.25C379.125 95 379.75 98.75 381 102.5C381 102.875 381.062 103.188 381.187 103.438L391.25 92.8125C391.958 92.0625 392.312 91.3125 392.312 90.5625C392.312 89.8125 391.937 88.8542 391.187 87.6875C390.479 86.5208 389.75 85.5625 389 84.8125C386.375 82.5208 384.291 81.375 382.75 81.375ZM424.25 100.625C424.583 96.75 424.75 93.0625 424.75 89.5625C424.75 86.0625 424.604 82.75 424.312 79.625C423.729 73.125 421.541 68 417.75 64.25C427.5 63.7917 436.854 61.7917 445.812 58.25C436.729 53.7083 425.854 51.4375 413.187 51.4375C412.521 51.4375 411.854 51.4375 411.187 51.4375L431.75 36.0625C450.958 39.0208 465.208 45.8333 474.5 56.5C483.833 67.1667 488.854 81.2083 489.562 98.625L452.75 130.062C440.875 124.062 426.791 119.083 410.5 115.125L424.25 100.625ZM448.75 59.875C447.458 62.25 446.437 64.5417 445.687 66.75C444.937 68.9167 444.562 71 444.562 73C444.562 75 444.583 77.5417 444.625 80.625C444.708 83.6667 444.854 86.5417 445.062 89.25C445.271 91.9583 446 95.1458 447.25 98.8125C446.375 98.7292 445.521 98.6875 444.687 98.6875C440.479 98.6875 436.479 99.5417 432.687 101.25C442.687 108.542 450.458 112.188 456 112.188C458.291 112.188 460.208 111.542 461.75 110.25C466.458 106.292 468.812 100.583 468.812 93.125C468.812 86.5 467.083 80.2917 463.625 74.5C460.166 68.6667 455.208 63.7917 448.75 59.875ZM523.75 130.062L493.812 118.125C494.937 111.875 495.5 105.375 495.5 98.625C495.5 91.8333 494.854 84.75 493.562 77.375L515.125 64.6875V64.5L515.25 64.5625H515.312L539.625 82L514.312 108.625C516.021 110.667 517.916 111.792 520 112C522.083 112.208 523.791 112.312 525.125 112.312C526.5 112.312 528.104 112.25 529.937 112.125C531.812 111.958 534.104 111.833 536.812 111.75C534.604 114.833 532.416 117.896 530.25 120.938C528.083 123.979 525.916 127.021 523.75 130.062ZM513.375 81.375C510.958 81.375 509.75 84.6667 509.75 91.25C509.75 95 510.375 98.75 511.625 102.5C511.625 102.875 511.687 103.188 511.812 103.438L521.875 92.8125C522.583 92.0625 522.937 91.3125 522.937 90.5625C522.937 89.8125 522.562 88.8542 521.812 87.6875C521.104 86.5208 520.375 85.5625 519.625 84.8125C517 82.5208 514.916 81.375 513.375 81.375ZM567.062 147.688C559.937 148.812 552.625 151.875 545.125 156.875L542 153.5C543.25 152.75 544.958 150.208 547.125 145.875C549.333 141.583 550.437 137.708 550.437 134.25L550.625 121.438L541.75 117.938C543.166 115.146 544.708 112.688 546.375 110.562C548.083 108.438 549.541 106.062 550.75 103.438L550.812 90.625C550.812 87.2917 549.437 84.6458 546.687 82.6875C543.979 80.7292 542.083 79.375 541 78.625L555 64.25L567 75.1875L575.812 64.25C579.021 65.625 582.25 68.0833 585.5 71.625C592.541 79.1667 596.708 87.0417 598 95.25C598.166 96.2083 598.25 97.125 598.25 98C598.25 100.75 597.479 102.979 595.937 104.688L575.187 131.125L566.375 127.625L566.312 130.062C566.312 130.396 566.312 130.854 566.312 131.438C566.312 131.979 566.562 137.396 567.062 147.688ZM566.75 108.812C572.5 111.479 576.375 112.812 578.375 112.812C578.708 112.812 579 112.771 579.25 112.688C582.875 111.854 584.687 109.562 584.687 105.812C584.687 104.896 584.583 103.896 584.375 102.812C583.333 97.5208 581.458 93.1458 578.75 89.6875C576.041 86.2292 573.146 83.5208 570.062 81.5625C569.396 82.6875 568.75 83.8333 568.125 85C567.5 86.1667 567.187 87.625 567.187 89.375L566.75 108.812Z" fill="white"/>
</svg>
