<svg width="589" height="168" viewBox="0 0 589 168" fill="none" xmlns="http://www.w3.org/2000/svg">
<path d="M61.0993 12.5H63.3139L64.8958 13.4512L66.1613 15.9878L68.3759 24.2317L71.2232 30.2561L73.4378 32.7927L75.9688 34.061L78.8161 34.378L81.6635 33.4268L84.1945 30.5732L85.4599 28.0366L86.7254 22.6463L87.3582 15.3537L88.6237 13.4512L89.2564 13.1341H93.3692L98.1148 14.7195L102.544 17.2561L106.973 20.7439L112.352 26.1341L115.199 29.6219L118.995 33.7439L122.475 36.5976L126.272 39.4512L130.385 41.9878L137.661 45.4756L142.723 47.6951L144.305 49.2805L143.989 52.1341L141.774 55.3049L139.56 57.5244L135.13 60.6951L130.701 63.2317L125.639 65.7683L117.73 68.939L114.25 70.2073L113.617 75.9146L115.832 80.9878L118.679 85.7439L122.159 93.0366L123.425 97.1585L123.741 99.061V106.037L122.159 109.841L120.894 111.744L119.944 112.061L120.894 107.622V103.183L119.628 98.7439V103.5L118.363 109.524L117.73 112.061V116.817L118.995 123.159V127.915L118.046 131.085L116.464 133.622L115.515 134.256V129.5L113.933 124.11L112.035 118.402V125.378L112.984 131.402L113.301 135.524L112.668 139.329L111.402 141.866L110.453 142.5L110.137 135.524L109.504 132.671L109.188 137.744L107.922 142.817L105.708 147.256L103.493 149.476L100.646 151.061L99.6967 150.744L101.911 147.256L103.177 143.451L103.493 141.549V138.378L102.228 132.988L101.279 128.549L100.329 133.622V136.476L101.279 140.915L101.595 143.451L99.3803 142.5L96.8493 139.646L95.5838 136.476L94.9511 132.671L95.2675 124.11L92.1037 126.963L89.5728 129.817L87.6745 133.305L87.3582 134.573V138.695L87.9909 140.598L86.7254 140.28L85.1436 138.695L84.1945 136.793L83.2453 141.866L81.9799 144.72L79.7652 148.524L79.4489 149.793V152.646L80.398 155.5L78.8161 155.183L76.6015 153.28L75.6524 151.061V141.866L74.7033 138.061L74.0706 135.841H73.4378L73.1214 138.061L71.2232 141.232L70.2741 141.549V136.476L69.0086 133.305L67.1104 130.134L64.5794 127.28V126.646L63.3139 126.012L62.0484 124.744V124.11H61.4157V128.232L59.2011 136.159V140.598L60.1502 143.451L58.5683 142.817L56.6701 140.28L55.4046 137.427L55.721 141.549L56.9865 146.305L59.8338 151.061L56.9865 150.11L53.8228 147.573L51.6082 144.402L50.0263 140.915L49.0772 137.11V130.134L49.7099 124.427V122.524L47.179 128.866L46.2298 132.354V135.841L47.179 140.28L45.5971 139.329L43.3825 136.159L42.117 132.354V126.646L43.3825 120.622V116.817L41.8006 111.744L40.5352 108.256L39.9024 105.085V110.793L40.8515 114.598L41.8006 117.451L40.2188 116.5L38.0042 113.646L36.4223 110.159L35.7896 106.671V102.549L36.7387 97.4756L40.2188 87.6463L40.8515 85.7439L39.2697 85.4268L38.6369 88.5976L36.4223 93.9878L34.5241 97.1585L32.3095 100.012L29.4621 103.183L25.6657 106.671L20.9201 110.159L17.44 112.061L15.5418 112.695L19.3383 108.256L20.9201 104.451L21.5529 98.7439L22.502 93.6707L24.0838 89.8659L26.2984 86.378L29.7785 82.8902L34.2077 80.0366H35.1568L36.106 83.2073V79.4024L37.0551 77.1829L38.6369 75.5976L40.2188 74.6463H42.117L43.0661 76.8659L42.7498 78.1341L42.117 79.4024L41.8006 81.3049H42.7498L43.0661 78.7683L44.0152 77.1829L43.3825 75.9146L42.7498 74.0122L43.0661 70.5244L43.3825 69.8902L39.9024 68.939L33.2586 66.4024L25.9821 62.9146L20.6037 59.4268L17.44 56.8902L14.5927 54.0366L12.6944 50.8658L12.3781 48.6463L13.9599 46.7439L23.1347 42.3049L27.5639 40.0854L33.2586 36.2805L37.3714 32.7927L39.2697 30.8902H39.9024L40.5352 29.6219L42.7498 27.4024L45.5971 23.9146L51.6082 17.8902L56.0374 14.7195L59.8338 12.8171L61.0993 12.5ZM59.8338 18.2073V18.8415L61.4157 19.7927L63.3139 24.2317L65.5285 28.6707L65.8449 28.0366L63.9467 22.6463L62.3648 19.4756L61.0993 18.2073H59.8338ZM72.8051 50.2317L67.1104 50.8658L61.0993 52.4512L55.721 54.9878L51.6082 57.8415L48.4445 60.6951H49.3936L54.4555 57.5244L60.4666 54.6707L66.4776 52.7683L71.856 51.8171L75.6524 51.5H81.9799L88.94 52.4512H90.5219L89.2564 51.8171L83.2453 50.5488L79.7652 50.2317H72.8051ZM64.8958 57.2073L58.252 59.4268L52.2409 62.5976L48.1281 65.7683L45.9135 68.3049L46.2298 68.939L48.4445 66.7195L52.5573 63.8658L58.252 60.6951L64.263 58.1585L66.1613 57.5244L64.8958 57.2073ZM107.922 61.9634L109.821 64.5L111.402 66.4024V65.4512L109.188 62.5976L107.922 61.9634ZM69.6414 63.2317L64.263 64.1829L57.6192 66.4024L52.8737 68.939L51.2918 70.5244L53.19 69.8902L58.5683 67.3537L64.5794 65.4512L70.2741 64.1829L75.0197 63.5488V63.2317H69.6414ZM78.4998 65.4512L71.2232 66.0854L63.3139 67.6707L57.6192 69.5732L52.8737 71.7927L52.5573 73.378V75.5976L55.4046 74.9634L55.721 73.6951L57.3029 73.061L57.9356 72.7439H61.7321L69.325 73.6951L72.4887 74.0122L84.1945 68.939L90.2055 66.4024V66.0854L83.8781 65.4512H78.4998ZM94.002 67.3537L87.6745 70.2073L79.1325 74.3293L74.7033 76.5488L74.0706 81.3049L72.8051 84.1585L71.5396 86.061L69.0086 88.2805L65.8449 89.5488H61.0993L57.9356 87.9634L56.3537 86.378L55.4046 85.7439L53.19 88.5976L52.2409 88.9146L50.659 88.5976V90.8171L51.6082 93.3537L53.19 95.2561L56.3537 96.8415L60.7829 97.7927L62.3648 98.7439L63.3139 100.646V104.451L64.5794 103.183L64.8958 105.402L66.1613 105.719L67.4268 104.451L67.7431 106.354H69.6414L70.5905 105.402V104.768H71.2232L71.5396 106.354L71.856 106.671H74.3869L75.336 105.085H75.9688L77.2343 106.988H78.8161L80.0816 105.085H80.7144L81.9799 106.988H83.8781L84.8272 106.037L85.1436 104.768L86.4091 106.671L88.3073 106.354L88.6237 104.451L89.8891 106.037L90.8383 105.719L91.471 103.817L92.1037 104.768H92.7365V101.598L93.6856 99.378L95.2675 98.1097L100.646 96.5244L103.493 94.6219L105.075 91.4512V86.6951L104.126 78.7683L101.911 69.8902L99.0639 68.6219L94.9511 67.3537H94.002ZM52.2409 78.7683L50.9754 85.1098L50.659 88.2805L51.9245 86.6951L54.1391 83.5244L53.8228 78.7683H52.2409ZM109.188 89.8659L109.504 91.7683L112.352 100.329L113.617 106.988H113.933V102.866L112.984 98.1097L111.402 93.6707L109.504 89.8659H109.188ZM46.5462 90.1829L44.3316 94.6219L43.3825 97.7927V100.646H43.6989L44.9644 95.8902L46.8626 91.1341L46.5462 90.1829ZM32.3095 90.8171L29.4621 95.2561V96.2073L31.3604 93.9878L32.6259 91.7683L32.3095 90.8171ZM48.7608 93.9878L47.8117 97.4756L48.1281 99.6951V102.232L46.5462 103.5L46.8626 105.085L48.1281 106.354H49.3936L49.0772 104.134L50.0263 101.915V98.4268L49.0772 93.9878H48.7608ZM54.7719 99.061L55.4046 102.232L56.3537 108.89L56.9865 114.28L58.252 116.817L60.4666 119.037L62.9975 121.256L67.4268 126.012L69.0086 127.915H69.325L69.6414 126.329L72.1723 129.183L72.8051 128.232L74.0706 125.061L74.3869 124.744L75.6524 128.866H76.2852L77.5506 125.061L77.867 124.744L78.8161 126.963L79.1325 128.549L80.398 126.963L81.3471 125.695L82.2962 128.866L83.8781 127.28V126.646H84.5108L84.8272 129.183L87.0418 126.963L87.6745 127.598L92.4201 122.524L94.9511 120.305L97.4821 117.768L99.0639 114.915L100.013 106.354L101.279 99.061L98.7476 100.012L97.4821 105.085L96.2166 113.012L95.2675 115.549L94.9511 112.061H94.3183L93.0529 114.598L91.471 115.866V114.915L91.7874 114.28V112.061L90.2055 113.012L89.8891 115.866L88.3073 117.451L88.94 116.183V113.646L86.7254 114.28L86.0927 117.451L85.4599 118.719L84.8272 119.037L85.1436 114.915L82.929 115.232L82.2962 118.719L81.6635 119.988H81.0307L81.3471 118.085V115.549H78.8161L78.4998 120.305H77.2343V115.549H74.7033V118.085L75.0197 119.988L74.0706 119.671L73.4378 118.085L73.1214 115.232L72.8051 114.915H70.9068V117.768L71.2232 119.037L70.2741 118.719L69.6414 117.451L69.325 114.28L68.0595 113.646H66.794L67.1104 116.5V117.134L65.8449 115.549L65.5285 112.695L64.263 112.061L63.9467 112.378L64.263 115.232L64.5794 115.866L62.9975 114.28L61.7321 112.061L61.0993 113.329L60.7829 115.549L59.8338 112.695L58.252 103.5L56.9865 99.6951L54.7719 99.061ZM106.34 101.915V111.744L106.973 110.476L107.29 108.89V105.085L106.657 101.915H106.34ZM64.263 106.671L63.9467 106.988V109.841L65.8449 110.793V107.939L65.2121 106.671H64.263ZM91.1546 106.671L90.2055 107.622L89.8891 109.524L90.2055 110.793L91.471 110.159L92.1037 108.573L91.471 106.671H91.1546ZM67.7431 107.622L67.1104 108.256V111.427L69.0086 112.061L69.6414 109.841L69.325 107.939L67.7431 107.622ZM87.3582 107.622L86.7254 107.939L86.4091 110.793L86.7254 112.061L88.6237 111.744L88.94 111.427V108.89L87.9909 107.622H87.3582ZM71.5396 107.939L70.5905 109.524V112.378L71.5396 113.012H73.1214L73.4378 112.061V109.207L72.4887 107.939H71.5396ZM75.336 108.256L74.3869 109.841V113.329L74.7033 113.646H77.2343L77.5506 113.329V109.841L76.6015 108.256H75.336ZM79.4489 108.256L78.4998 109.841V113.329L78.8161 113.646H81.3471L81.6635 113.329V109.841L80.7144 108.256H79.4489ZM83.5617 108.256L82.929 108.89V112.695L83.2453 113.012H84.8272L85.4599 112.378V109.207L84.8272 108.256H83.5617ZM56.3537 119.988L56.6701 129.817H56.9865L57.3029 128.232V122.524L56.6701 119.988H56.3537Z" fill="black"/>
<path d="M76.9179 18.8415H80.0816L83.8781 19.4756L85.7763 20.1098L85.4599 22.9634L83.8781 28.3537L81.9798 31.2073L80.398 32.4756L79.4489 32.7927H76.9179L74.3869 31.5244L71.8559 28.6707L69.325 23.5976L68.6922 22.0122L69.0086 20.7439L74.0705 19.1585L76.9179 18.8415Z" fill="black"/>
<path d="M15.2254 63.5488H17.7564L19.6546 64.5L21.2365 66.4024L22.502 70.2073L24.4002 71.7927L34.5241 78.1341V78.7683L29.4621 81.6219L27.2475 82.8902L20.6037 79.7195L18.7055 79.0854L15.8582 79.4024L13.6436 80.3537H10.4798L7.94887 78.1341L6.99976 75.2805L7.31613 72.4268L8.58161 71.1585L12.3781 70.8415L12.6944 70.5244V65.7683L14.2763 63.8658L15.2254 63.5488Z" fill="black"/>
<path d="M139.559 63.8658H142.407L143.672 64.5L144.621 66.0854V69.2561L144.305 71.1585L147.152 70.5244L148.734 71.4756L149.683 73.061L150 74.0122V76.5488L148.734 79.0854L147.152 80.3537L146.52 80.6707H143.04L140.509 78.7683H138.294L125.639 85.1097L122.159 87.0122L120.894 86.6951L118.046 82.2561L117.413 80.9878L125.006 76.5488L131.967 72.4268L134.814 70.2073L136.396 66.0854L138.294 64.5L139.559 63.8658Z" fill="black"/>
<path d="M96.8493 70.8415L99.0639 71.1585L100.962 73.378L101.595 74.9634V76.8659L100.329 76.2317L98.7475 75.2805H95.5838L93.0529 75.9146V76.2317L96.5329 77.1829L99.3803 79.0854L100.013 80.3537V82.8902L99.0639 86.061L97.1657 88.5976L94.6347 89.8658L92.1037 90.1829L89.5728 89.5488L86.4091 87.9634L83.5617 85.4268L82.2962 82.8902L81.9798 80.0366L83.8781 74.9634L86.7254 73.6951L94.002 71.4756L96.8493 70.8415Z" fill="black"/>
<path d="M77.867 85.7439L79.4489 86.378L81.0307 88.9146L82.929 93.0366L83.8781 95.8902V97.7927L82.2962 99.6951H80.398L78.8161 98.1097L78.1834 95.8902L77.2343 98.4268L75.9688 99.6951H74.0706L72.4887 97.7927L72.8051 94.6219L75.0197 89.5488L76.6015 86.6951L77.867 85.7439Z" fill="black"/>
<path d="M38.3206 116.5L42.117 119.037L41.8006 121.89L41.1679 123.793L32.3095 129.183L28.513 131.719L27.2475 135.207L25.9821 138.378L24.0838 139.963L23.1347 140.28H20.6037L18.0728 139.012L17.1236 138.061L16.8073 137.11V134.89L18.3891 132.671L18.0728 132.037L16.8073 132.988L14.2763 132.671L12.6944 131.402L12.3781 130.768L12.0617 125.061L13.9599 122.841L15.2254 122.207H18.7055L22.502 124.11L25.6657 123.476L31.9931 120.305L38.3206 116.5Z" fill="black"/>
<path d="M119.312 117.134L123.741 119.354L129.752 122.524L133.232 123.793H135.447L138.61 122.524H141.141L143.04 123.476L144.621 125.378L144.938 126.329V128.866L143.989 130.768L142.723 131.719H140.509L139.876 132.354L140.192 134.256L140.509 134.89V137.11L139.243 139.329L137.029 140.598H134.181L132.283 139.646L130.701 137.744L129.436 132.988L128.17 131.402L122.792 127.915L120.261 126.329L119.628 119.988L119.312 117.134Z" fill="black"/>
<path d="M144.622 125.378L143.04 123.476L141.141 122.524H138.61L135.447 123.793H133.232L129.752 122.524L123.741 119.354L119.311 117.134L119.628 119.987L120.26 126.329L122.792 127.915L128.17 131.402L129.435 132.987L130.701 137.744L132.283 139.646L134.181 140.598H137.028L139.243 139.329L140.509 137.109V134.891L140.192 134.256L139.876 132.354L140.509 131.72H142.723L143.989 130.769L144.938 128.866V126.329L144.622 125.378ZM61.0993 12.5L59.8337 12.8174L56.0378 14.7197L51.6081 17.8906L45.5974 23.915L42.7497 27.4023L40.5349 29.6221L39.9021 30.8906H39.2693L37.3718 32.793L33.2585 36.2803L27.5642 40.085L23.1345 42.3047L13.9597 46.7441L12.3777 48.6465L12.6941 50.8662L14.5925 54.0361L17.4402 56.8906L20.6033 59.4268L25.9822 62.915L33.2585 66.4023L39.9021 68.9395L43.3826 69.8906L43.0661 70.5244L42.7497 74.0117L43.3826 75.915L44.0154 77.1826L43.0661 78.7686L42.7497 81.3047H41.8005L42.1169 79.4023L42.7497 78.1338L43.0661 76.8662L42.1169 74.6465H40.2185L38.6365 75.5977L37.0554 77.1826L36.1062 79.4023V83.207L35.157 80.0361H34.2077L29.7781 82.8906L26.2986 86.3779L24.0837 89.8662L22.5017 93.6709L21.5525 98.7441L20.9197 104.451L19.3386 108.256L15.5417 112.695L17.4402 112.061L20.9197 110.158L25.6658 106.671L29.4617 103.183L32.3093 100.012L34.5242 97.1582L36.4226 93.9883L38.6365 88.5977L39.2693 85.4268L40.8513 85.7441L40.2185 87.6465L36.739 97.4756L35.7898 102.549V106.671L36.4226 110.158L38.0046 113.646L40.2185 116.5L41.8005 117.451L40.8513 114.598L39.9021 110.793V105.085L40.5349 108.256L41.8005 111.744L43.3826 116.817V120.622L42.1169 126.646V132.354L43.3826 136.158L45.5974 139.329L47.1794 140.28L46.2302 135.842V132.354L47.1794 128.866L49.7097 122.524V124.427L49.0769 130.134V137.109L50.0261 140.915L51.6081 144.402L53.823 147.573L56.9861 150.109L59.8337 151.061L56.9861 146.305L55.7214 141.549L55.405 137.427L56.6697 140.28L58.5681 142.817L60.1501 143.451L59.2009 140.598V136.158L61.4158 128.231V124.109H62.0486V124.744L63.3142 126.012L64.5798 126.646V127.28L67.1101 130.134L69.0085 133.305L70.2742 136.476V141.549L71.2234 141.231L73.1218 138.061L73.4382 135.842H74.0701L74.7029 138.061L75.6521 141.866V151.061L76.6013 153.28L78.8161 155.183L80.3982 155.5L79.449 152.646V149.793L79.7654 148.524L81.9802 144.72L83.2449 141.866L84.1941 136.793L85.1433 138.695L86.7253 140.28L87.991 140.598L87.3581 138.695V134.573L87.6745 133.305L89.573 129.817L92.1033 126.964L95.2673 124.109L94.9509 132.671L95.5837 136.476L96.8493 139.646L99.3806 142.5L101.594 143.451L101.278 140.915L100.33 136.476V133.622L101.278 128.549L102.227 132.988L103.493 138.378V141.549L103.176 143.451L101.911 147.256L99.697 150.744L100.646 151.061L103.493 149.476L105.708 147.256L107.923 142.817L109.188 137.744L109.505 132.671L110.136 135.524L110.453 142.5L111.402 141.866L112.668 139.329L113.301 135.524L112.984 131.402L112.035 125.378V118.402L113.933 124.109L115.515 129.5V134.256L116.465 133.622L118.047 131.085L118.995 127.915V123.158L117.73 116.817V112.061L118.363 109.524L119.628 103.5V98.7441L120.893 103.183V107.622L119.944 112.061L120.893 111.744L122.159 109.842L123.741 106.036V99.0605L123.425 97.1582L122.159 93.0361L118.679 85.7441L115.832 80.9883L113.617 75.915L114.25 70.207L117.73 68.9395L125.639 65.7686L130.701 63.2314L135.131 60.6953L139.559 57.5244L141.774 55.3047L143.989 52.1338L144.305 49.2803L142.723 47.6953L137.661 45.4756L130.385 41.9883L126.272 39.4512L122.475 36.5977L118.995 33.7441L115.199 29.6221L112.351 26.1338L106.973 20.7441L102.544 17.2559L98.115 14.7197L93.3689 13.1338H89.2566L88.6238 13.4512L87.3581 15.3535L86.7253 22.6465L85.4597 28.0361L84.1941 30.5732L81.6638 33.4268L78.8161 34.3779L75.9685 34.0605L73.4382 32.793L71.2234 30.2559L68.3757 24.2314L66.1609 15.9883L64.8962 13.4512L63.3142 12.5H61.0993ZM31.9929 120.305L25.6658 123.476L22.5017 124.109L18.7058 122.207H15.2253L13.9597 122.842L12.0613 125.061L12.3777 130.769L12.6941 131.402L14.2761 132.671L16.8074 132.988L18.073 132.036L18.3894 132.671L16.8074 134.891V137.109L17.1238 138.061L18.073 139.012L20.6033 140.28H23.1345L24.0837 139.964L25.9822 138.378L27.2478 135.207L28.5134 131.72L32.3093 129.183L41.1677 123.793L41.8005 121.891L42.1169 119.036L38.3201 116.5L31.9929 120.305ZM56.6697 119.988L57.3025 122.524V128.231L56.9861 129.817H56.6697L56.3533 119.988H56.6697ZM100.013 106.354L99.0642 114.915L97.4822 117.769L94.9509 120.305L92.4197 122.524L87.6745 127.598L87.0417 126.964L84.8269 129.183L84.5105 126.646H83.8777V127.28L82.2966 128.866L81.3474 125.695L80.3982 126.964L79.1326 128.549L78.8161 126.964L77.8669 124.744L77.5505 125.061L76.2849 128.866H75.6521L74.3865 124.744L74.0701 125.061L72.8054 128.231L72.1726 129.183L69.6413 126.329L69.3249 127.915H69.0085L67.4265 126.012L62.9978 121.256L60.4665 119.036L58.2517 116.817L56.9861 114.28L56.3533 108.891L55.405 102.231L54.7722 99.0605L56.9861 99.6953L58.2517 103.5L59.8337 112.695L60.7829 115.549L61.0993 113.329L61.7322 112.061L62.9978 114.28L64.5798 115.866L64.2634 115.231L63.947 112.378L64.2634 112.061L65.5281 112.695L65.8445 115.549L67.1101 117.134V116.5L66.7937 113.646H68.0593L69.3249 114.28L69.6413 117.451L70.2742 118.72L71.2234 119.036L70.907 117.769V114.915H72.8054L73.1218 115.231L73.4382 118.085L74.0701 119.671L75.0193 119.988L74.7029 118.085V115.549H77.2341V120.305H78.4997L78.8161 115.549H81.3474V118.085L81.031 119.988H81.6638L82.2966 118.72L82.9294 115.231L85.1433 114.915L84.8269 119.036L85.4597 118.72L86.0925 117.451L86.7253 114.28L88.9402 113.646V116.183L88.3074 117.451L89.8894 115.866L90.2058 113.012L91.7878 112.061V114.28L91.4714 114.915V115.866L93.0525 114.598L94.3181 112.061H94.9509L95.2673 115.549L96.2165 113.012L97.4822 105.085L98.7478 100.012L101.278 99.0605L100.013 106.354ZM25.0652 115.799C24.8141 115.983 24.5514 116.151 24.2781 116.301L23.448 116.754L23.4509 116.756L28.6091 114.171L30.1384 113.251L30.0476 113.05C29.9424 112.818 29.8514 112.58 29.7722 112.339L25.0652 115.799ZM76.6013 108.256L77.5505 109.842V113.329L77.2341 113.646H74.7029L74.3865 113.329V109.842L75.3357 108.256H76.6013ZM80.7146 108.256L81.6638 109.842V113.329L81.3474 113.646H78.8161L78.4997 113.329V109.842L79.449 108.256H80.7146ZM72.489 107.939L73.4382 109.207V112.061L73.1218 113.012H71.5398L70.5906 112.378V109.524L71.5398 107.939H72.489ZM84.8269 108.256L85.4597 109.207V112.378L84.8269 113.012H83.2449L82.9294 112.695V108.891L83.5613 108.256H84.8269ZM69.3249 107.939L69.6413 109.842L69.0085 112.061L67.1101 111.427V108.256L67.7429 107.622L69.3249 107.939ZM87.991 107.622L88.9402 108.891V111.427L88.6238 111.744L86.7253 112.061L86.4089 110.793L86.7253 107.939L87.3581 107.622H87.991ZM106.657 101.915L107.29 105.085V108.891L106.973 110.476L106.341 111.744V101.915H106.657ZM65.2117 106.671L65.8445 107.939V110.793L63.947 109.842V106.987L64.2634 106.671H65.2117ZM91.4714 106.671L92.1033 108.573L91.4714 110.158L90.2058 110.793L89.8894 109.524L90.2058 107.622L91.155 106.671H91.4714ZM94.9509 67.3535L99.0642 68.6221L101.911 69.8906L104.126 78.7686L105.075 86.6953V91.4512L103.493 94.6221L100.646 96.5244L95.2673 98.1094L93.6853 99.3779L92.7361 101.598V104.769H92.1033L91.4714 103.817L90.8386 105.72L89.8894 106.036L88.6238 104.451L88.3074 106.354L86.4089 106.671L85.1433 104.769L84.8269 106.036L83.8777 106.987H81.9802L80.7146 105.085H80.0818L78.8161 106.987H77.2341L75.9685 105.085H75.3357L74.3865 106.671H71.8562L71.5398 106.354L71.2234 104.769H70.5906V105.402L69.6413 106.354H67.7429L67.4265 104.451L66.1609 105.72L64.8962 105.402L64.5798 103.183L63.3142 104.451V100.646L62.365 98.7441L60.7829 97.793L56.3533 96.8418L53.1902 95.2559L51.6081 93.3535L50.6589 90.8174V88.5977L52.241 88.915L53.1902 88.5977L55.405 85.7441L56.3533 86.3779L57.9353 87.9639L61.0993 89.5488H65.8445L69.0085 88.2803L71.5398 86.0605L72.8054 84.1582L74.0701 81.3047L74.7029 76.5488L79.1326 74.3291L87.6745 70.207L94.0017 67.3535H94.9509ZM109.505 89.8662L111.402 93.6709L112.984 98.1094L113.933 102.866V106.987H113.617L112.351 100.329L109.505 91.7686L109.188 89.8662H109.505ZM49.0769 93.9883L50.0261 98.4268V101.915L49.0769 104.134L49.3933 106.354H48.1277L46.863 105.085L46.5466 103.5L48.1277 102.231V99.6953L47.8113 97.4756L48.7605 93.9883H49.0769ZM46.863 91.1338L44.9646 95.8906L43.699 100.646H43.3826V97.793L44.3318 94.6221L46.5466 90.1826L46.863 91.1338ZM76.6013 86.6953L75.0193 89.5488L72.8054 94.6221L72.489 97.793L74.0701 99.6953H75.9685L77.2341 98.4268L78.1833 95.8906L78.8161 98.1094L80.3982 99.6953H82.2966L83.8777 97.793V95.8906L82.9294 93.0361L81.031 88.915L79.449 86.3779L77.8669 85.7441L76.6013 86.6953ZM32.6257 91.7686L31.3601 93.9883L29.4617 96.207V95.2559L32.3093 90.8174L32.6257 91.7686ZM94.0017 71.4756L86.7253 73.6953L83.8777 74.9639L81.9802 80.0361L82.2966 82.8906L83.5613 85.4268L86.4089 87.9639L89.573 89.5488L92.1033 90.1826L94.6345 89.8662L97.1658 88.5977L99.0642 86.0605L100.013 82.8906V80.3535L99.3806 79.085L96.5329 77.1826L93.0525 76.2314V75.915L95.5837 75.2803H98.7478L100.33 76.2314L101.594 76.8662V74.9639L100.962 73.3779L99.0642 71.1582L96.8493 70.8418L94.0017 71.4756ZM53.823 78.7686L54.1394 83.5244L51.9245 86.6953L50.6589 88.2803L50.9753 85.1094L52.241 78.7686H53.823ZM15.2253 63.5488L14.2761 63.8662L12.6941 65.7686V70.5244L12.3777 70.8418L8.58177 71.1582L7.31615 72.4268L6.99974 75.2803L7.94896 78.1338L10.4802 80.3535H13.6433L15.8581 79.4023L18.7058 79.085L20.6033 79.7197L27.2478 82.8906L29.4617 81.6221L34.5242 78.7686V78.1338L24.4001 71.793L22.5017 70.207L21.2361 66.4023L19.655 64.5L17.7566 63.5488H15.2253ZM83.8777 65.4512L90.2058 66.085V66.4023L84.1941 68.9395L72.489 74.0117L69.3249 73.6953L61.7322 72.7441H57.9353L57.3025 73.0605L55.7214 73.6953L55.405 74.9639L52.5574 75.5977V73.3779L52.8738 71.793L57.6189 69.5732L63.3142 67.6709L71.2234 66.085L78.4997 65.4512H83.8777ZM75.0193 63.2314V63.5488L70.2742 64.1826L64.5798 65.4512L58.5681 67.3535L53.1902 69.8906L51.2917 70.5244L52.8738 68.9395L57.6189 66.4023L64.2634 64.1826L69.6413 63.2314H75.0193ZM66.1609 57.5244L64.2634 58.1582L58.2517 60.6953L52.5574 63.8662L48.4441 66.7197L46.2302 68.9395L45.9138 68.3047L48.1277 65.7686L52.241 62.5977L58.2517 59.4268L64.8962 57.207L66.1609 57.5244ZM109.188 62.5977L111.402 65.4512V66.4023L109.82 64.5L107.923 61.9639L109.188 62.5977ZM79.7654 50.2314L83.2449 50.5488L89.2566 51.8174L90.5222 52.4512H88.9402L81.9802 51.5H75.6521L71.8562 51.8174L66.4773 52.7686L60.4665 54.6709L54.4558 57.5244L49.3933 60.6953H48.4441L51.6081 57.8418L55.7214 54.9883L61.0993 52.4512L67.1101 50.8662L72.8054 50.2314H79.7654ZM76.9177 18.8418L74.0701 19.1582L69.0085 20.7441L68.6921 22.0117L69.3249 23.5977L71.8562 28.6709L74.3865 31.5244L76.9177 32.793H79.449L80.3982 32.4756L81.9802 31.207L83.8777 28.3535L85.4597 22.9639L85.7761 20.1094L83.8777 19.4756L80.0818 18.8418H76.9177ZM61.0993 18.207L62.365 19.4756L63.947 22.6465L65.8445 28.0361L65.5281 28.6709L63.3142 24.2314L61.4158 19.793L59.8337 18.8418V18.207H61.0993ZM149.683 73.0605L148.734 71.4756L147.152 70.5244L144.305 71.1582L144.622 69.2559V66.085L143.673 64.5L142.407 63.8662H139.559L138.294 64.5L136.396 66.085L134.814 70.207L131.967 72.4268L125.007 76.5488L117.414 80.9883L118.047 82.2559L120.893 86.6953L122.159 87.0117L125.639 85.1094L138.294 78.7686H140.509L143.04 80.6709H146.519L147.152 80.3535L148.734 79.085L150 76.5488V74.0117L149.683 73.0605ZM157 76.5488C157 77.6334 156.748 78.7033 156.263 79.6738L154.998 82.21C154.546 83.1159 153.903 83.9135 153.113 84.5469L151.531 85.8154C151.146 86.124 150.73 86.3913 150.289 86.6123L149.656 86.9287C148.683 87.4165 147.608 87.6709 146.519 87.6709H143.04C141.543 87.6709 140.087 87.1899 138.884 86.3018L128.942 91.2832L130.116 95.1045L130.181 95.3281C130.242 95.5527 130.292 95.7802 130.33 96.0098L130.646 97.9131L130.687 98.1982C130.723 98.4842 130.741 98.7722 130.741 99.0605V106.036C130.741 106.958 130.559 107.872 130.205 108.724L128.623 112.528C128.454 112.934 128.247 113.322 128.006 113.688L132.595 116.109L134.272 116.721L136.006 116.027L136.319 115.91C137.055 115.655 137.829 115.524 138.61 115.524H141.141L141.549 115.536C142.497 115.591 143.425 115.84 144.277 116.267L146.176 117.218L146.495 117.388C147.228 117.804 147.881 118.35 148.422 119L150.004 120.902L150.207 121.158C150.666 121.766 151.023 122.445 151.263 123.169L151.58 124.12C151.817 124.833 151.938 125.578 151.938 126.329V128.866C151.938 129.951 151.686 131.021 151.202 131.991L150.253 133.894C149.828 134.744 149.236 135.498 148.512 136.11L148.195 136.364L147.509 136.88V137.109C147.509 138.325 147.192 139.521 146.59 140.577L145.324 142.797C144.705 143.882 143.806 144.782 142.721 145.403L140.508 146.672C139.448 147.278 138.249 147.598 137.028 147.598H134.181C133.229 147.598 132.287 147.403 131.415 147.027L131.045 146.855L129.147 145.904C128.283 145.471 127.518 144.865 126.9 144.122L125.319 142.22C124.751 141.536 124.318 140.751 124.044 139.908L123.936 139.544L123.118 136.469L122.99 136.386L122.404 137.326C121.878 138.169 121.179 138.89 120.353 139.442L119.669 139.898L119.573 140.478C119.459 141.165 119.242 141.831 118.931 142.454L117.666 144.991C117.122 146.081 116.304 147.01 115.292 147.687L114.343 148.32C113.789 148.69 113.192 148.973 112.575 149.169L111.971 150.381C111.636 151.054 111.194 151.668 110.663 152.2L108.448 154.42C108.046 154.823 107.596 155.175 107.109 155.469L106.898 155.592L104.051 157.177C102.334 158.133 100.292 158.323 98.4275 157.7L97.4783 157.383C95.4359 156.7 93.8211 155.116 93.1003 153.087C92.3795 151.058 92.6325 148.809 93.7868 146.991L93.8786 146.846L92.8249 145.659C91.6035 146.826 90.0158 147.499 88.364 147.587C88.3161 147.693 88.2667 147.799 88.2136 147.903L88.03 148.241L86.449 150.957V151.513L87.0398 153.291C87.8272 155.658 87.2955 158.266 85.6433 160.136C83.9911 162.005 81.4685 162.854 79.0222 162.363L77.4402 162.046C76.2628 161.81 75.1655 161.276 74.2546 160.493L72.0398 158.59C71.3291 157.979 70.7496 157.233 70.3337 156.396L70.1658 156.033L69.2165 153.813C68.8446 152.944 68.6521 152.007 68.6521 151.061V148.354C67.7752 148.146 66.9349 147.77 66.1833 147.229C66.1509 147.205 66.1205 147.179 66.0886 147.155C66.0157 147.272 65.9392 147.387 65.8591 147.5C67.3412 150.008 67.1169 153.172 65.2908 155.445C63.4562 157.728 60.3939 158.628 57.616 157.7L54.7683 156.749C54.0822 156.52 53.4361 156.186 52.8533 155.76L52.6081 155.571L49.4441 153.034C48.9239 152.617 48.4655 152.128 48.0837 151.581L45.8689 148.411C45.623 148.059 45.4105 147.685 45.2331 147.294L45.0798 146.957C44.5595 146.793 44.0529 146.568 43.572 146.279L41.99 145.328C41.2529 144.885 40.6045 144.31 40.0769 143.634L39.8581 143.338L37.6433 140.167C37.3054 139.683 37.0301 139.159 36.824 138.606L36.74 138.368L35.7253 135.318L34.3103 136.264L33.8279 137.595C33.8027 137.664 33.7761 137.733 33.7488 137.802L32.4831 140.973C32.1064 141.917 31.5294 142.766 30.7937 143.462L30.4695 143.751L28.571 145.336C27.9004 145.896 27.1303 146.326 26.3015 146.603L25.3533 146.92C24.6382 147.159 23.8885 147.28 23.1345 147.28H20.6033C19.5146 147.28 18.4408 147.027 17.4675 146.539L14.9363 145.271C14.3475 144.975 13.8039 144.599 13.321 144.152L13.1179 143.956L12.1687 143.005C11.4978 142.333 10.9714 141.532 10.6208 140.652L10.4812 140.271L10.1648 139.319C10.0346 138.928 9.94087 138.526 9.88158 138.119L8.31517 136.864C7.52531 136.231 6.88237 135.433 6.43041 134.527L6.114 133.894C5.74139 133.147 5.50615 132.34 5.41771 131.512L5.38841 131.155L5.07201 125.448C4.97233 123.649 5.57088 121.881 6.74193 120.512L8.64037 118.292L8.87377 118.032C9.22852 117.657 9.6241 117.324 10.0515 117.036C9.94201 116.898 9.83603 116.755 9.73607 116.606C7.97844 113.997 8.17774 110.536 10.2224 108.146L13.2995 104.546L14.073 102.687L14.5954 97.9727L14.6286 97.7139C14.6414 97.628 14.6566 97.5424 14.6726 97.457L15.6218 92.3838L15.698 92.0254C15.7839 91.6699 15.8973 91.3214 16.0378 90.9834L17.6199 87.1787L17.7419 86.9033C17.8431 86.6867 17.956 86.4757 18.0788 86.2705L17.9734 86.2207L17.948 86.2119L17.6648 86.2441L16.406 86.7852C15.5332 87.16 14.5932 87.3535 13.6433 87.3535H10.4802C8.78203 87.3535 7.14177 86.7359 5.86498 85.6162L3.33373 83.3975C2.45735 82.6289 1.78718 81.6544 1.38353 80.5635L1.30638 80.3438L0.357164 77.4893C0.0382905 76.5303 -0.0686468 75.5132 0.0427108 74.5088L0.359117 71.6553L0.39818 71.3613C0.623932 69.8954 1.30984 68.536 2.36107 67.4824L3.6267 66.2139L3.85033 66C4.42033 65.4772 5.07012 65.0571 5.77025 64.75C5.95639 63.4843 6.48599 62.2867 7.31224 61.293L8.89427 59.3906L9.05345 59.2061C9.18268 59.0612 9.31755 58.9221 9.45775 58.7891C9.22615 58.5388 9.01074 58.2743 8.8181 57.9932L8.58666 57.6318L6.68822 54.4619C6.2098 53.6628 5.89583 52.7756 5.76439 51.8535L5.44798 49.6338C5.16902 47.676 5.73147 45.6915 6.99584 44.1709L8.57787 42.2686L8.82396 41.9873C9.41644 41.3476 10.124 40.8231 10.9109 40.4424L20.0515 36.0195L24.0378 34.0215L29.0349 30.6826L32.6169 27.6465L34.3142 25.9463L34.5661 25.7061C34.7013 25.5834 34.8416 25.4675 34.9851 25.3564C35.1683 25.1181 35.3668 24.8912 35.5798 24.6777L37.5456 22.707L40.1745 19.4883L40.4021 19.2236C40.48 19.1373 40.5602 19.053 40.6423 18.9707L46.6531 12.9463L46.8611 12.7451C47.0735 12.5491 47.2987 12.3666 47.5339 12.1982L51.9626 9.02734L52.1892 8.87207C52.4182 8.72134 52.6558 8.58384 52.9011 8.46094L56.698 6.55859L57.0447 6.39648C57.3963 6.24373 57.7603 6.12063 58.1326 6.02734L59.3982 5.70996L59.8181 5.61816C60.2403 5.53956 60.6693 5.5 61.0993 5.5H63.3142L63.5515 5.50391C64.7399 5.54426 65.9003 5.88684 66.9216 6.50098L68.5027 7.45215L68.7146 7.58496C69.7578 8.26404 70.6029 9.20966 71.1599 10.3262L72.2009 12.415C72.5597 12.3156 72.9254 12.2424 73.2956 12.2012L76.1433 11.8848L76.53 11.8525C76.6591 11.8454 76.7884 11.8418 76.9177 11.8418H80.0818L80.3708 11.8477C80.6603 11.8596 80.9491 11.8897 81.2351 11.9375L81.2497 11.9404C81.3377 11.783 81.4297 11.6273 81.53 11.4766L82.7956 9.57422L83.0603 9.20312C83.7049 8.35891 84.5348 7.67101 85.488 7.19336L86.1199 6.87598L86.49 6.7041C87.3625 6.32871 88.3039 6.13379 89.2566 6.13379H93.3689L93.6521 6.13965C94.3102 6.16626 94.9621 6.28613 95.5876 6.49512L100.333 8.08008L100.658 8.19824C100.98 8.32394 101.293 8.47342 101.593 8.64551L106.023 11.1816L106.244 11.3135C106.462 11.4493 106.673 11.5977 106.875 11.7568L111.303 15.2441L111.625 15.5127C111.729 15.6052 111.83 15.7012 111.928 15.7998L117.306 21.1895L117.547 21.4424C117.625 21.5287 117.701 21.6169 117.774 21.707L120.496 25.041L123.81 28.6387L126.798 31.0889L130.225 33.665L133.744 35.8359L140.578 39.1104L145.534 41.2842L145.831 41.4229C146.514 41.7615 147.139 42.21 147.678 42.751L149.26 44.3359C150.76 45.8389 151.496 47.9415 151.262 50.0518L150.946 52.9053C150.817 54.0692 150.398 55.1825 149.727 56.1426L147.825 58.8652C148.569 59.4132 149.2 60.105 149.678 60.9043L150.628 62.4902L150.746 62.6953C151.142 63.4106 151.407 64.188 151.534 64.9912L152.342 65.4766L152.703 65.71C153.528 66.278 154.224 67.0174 154.74 67.8799L155.689 69.4658L155.877 69.7988C156.055 70.1368 156.205 70.4887 156.326 70.8516L156.642 71.8027L156.725 72.0713C156.907 72.7016 157 73.3548 157 74.0117V76.5488Z" fill="white"/>
<path d="M56.0615 43.8027L57.8389 41.8682L59.4453 43.3516L57.6885 45.1016C57.2419 44.7233 56.6995 44.2904 56.0615 43.8027ZM58.1123 41.5742L60.1973 39.3047C60.2565 39.6556 60.4023 40.002 60.6348 40.3438C60.8717 40.6855 61.1429 41.0251 61.4482 41.3623L59.7324 43.0713L58.1123 41.5742ZM61.7354 41.6494C62.0225 41.9639 62.3164 42.276 62.6172 42.5859C62.9225 42.8958 63.1937 43.2057 63.4307 43.5156L61.9951 45.1562L60.0264 43.3447L61.7354 41.6494ZM59.6846 47.7471C59.6846 47.1637 59.1195 46.3708 57.9893 45.3682L59.7393 43.625L61.7354 45.457L59.6846 47.7881C59.6846 47.7744 59.6846 47.7607 59.6846 47.7471ZM66.3906 44.8555C66.3815 45.0514 66.377 45.2747 66.377 45.5254C66.377 45.7715 66.4134 46.2318 66.4863 46.9062C65.7116 47.0931 64.8115 47.4417 63.7861 47.9521C64.1826 46.2887 65.1921 44.2562 66.8145 41.8545L66.8623 41.7793L66.124 40.6172C65.8643 40.2298 65.6159 39.8743 65.3789 39.5508C65.2376 39.3639 65.0485 39.25 64.8115 39.209C64.5745 39.168 64.3376 39.1475 64.1006 39.1475C64.3923 38.7965 64.7272 38.457 65.1055 38.1289C65.4837 37.7962 65.9919 37.4613 66.6299 37.124C66.9626 37.7347 67.1882 38.1471 67.3066 38.3613C67.5892 38.8626 67.8444 39.307 68.0723 39.6943L68.2021 39.9062L68.3457 39.7012C68.5098 39.487 68.6761 39.2682 68.8447 39.0449C69.0179 38.8216 69.1888 38.6051 69.3574 38.3955C69.5306 38.1813 69.7015 37.9671 69.8701 37.7529C70.0433 37.5387 70.221 37.3223 70.4033 37.1035C70.6175 37.1901 70.8271 37.2767 71.0322 37.3633C71.2373 37.4499 71.4378 37.5342 71.6338 37.6162C72.0804 37.8031 72.4541 37.9626 72.7549 38.0947L71.4561 40.248C70.8818 39.7194 70.3122 39.3617 69.7471 39.1748C69.5557 39.3844 69.3825 39.585 69.2275 39.7764C69.0771 39.9632 68.9609 40.1068 68.8789 40.207C68.7969 40.3027 68.7012 40.4235 68.5918 40.5693L68.6465 40.6514C69.4167 41.9639 70.2962 43.3037 71.2852 44.6709C71.5312 45.0127 71.8138 45.2565 72.1328 45.4023C72.2969 45.498 72.4883 45.5641 72.707 45.6006C71.8457 46.512 70.9821 47.3096 70.1162 47.9932C70.0068 47.7744 69.8952 47.5557 69.7812 47.3369C69.6719 47.1136 69.5078 46.7832 69.2891 46.3457C68.5098 44.7734 67.8877 43.5703 67.4229 42.7363L67.2793 42.4834L67.1357 42.7363C66.6709 43.5977 66.4225 44.304 66.3906 44.8555ZM80.623 40.6104C81.5983 41.3896 82.3525 42.2259 82.8857 43.1191C81.8467 45.2383 80.2516 46.7946 78.1006 47.7881C75.0472 46.5576 73.5205 44.696 73.5205 42.2031C73.5205 42.0208 73.5296 41.8363 73.5479 41.6494C74.9697 39.5895 76.5465 38.2087 78.2783 37.5068C79.2262 38.1676 80.5228 38.71 82.168 39.1338L80.623 40.6104ZM78.1416 39.4619C78.1006 39.9222 78.0801 40.3301 78.0801 40.6855C78.0801 41.041 78.0846 41.3395 78.0938 41.5811C78.3444 41.3486 78.6019 41.1162 78.8662 40.8838C79.1305 40.6514 79.388 40.4144 79.6387 40.1729C79.2467 39.8675 78.7477 39.6305 78.1416 39.4619ZM78.1074 41.916C78.1302 42.4674 78.1735 43.0166 78.2373 43.5635C77.7633 43.6501 77.2051 43.9622 76.5625 44.5C76.9362 44.8418 77.3623 45.154 77.8408 45.4365C78.3239 45.7191 78.7751 45.8604 79.1943 45.8604C79.3128 45.8604 79.4313 45.8512 79.5498 45.833C80.3018 45.71 80.7233 45.375 80.8145 44.8281C80.8372 44.6823 80.8486 44.541 80.8486 44.4043C80.8486 44.0215 80.7598 43.682 80.582 43.3857C80.4043 43.085 80.1126 42.7933 79.707 42.5107C79.3014 42.2236 78.7682 42.0254 78.1074 41.916ZM76.0566 44.001C76.1751 43.7412 76.2435 43.4427 76.2617 43.1055L76.3232 40.7266C76.3278 40.5215 76.2594 40.2572 76.1182 39.9336C76.0452 39.9974 75.9792 40.0726 75.9199 40.1592C75.5052 40.7152 75.2979 41.3395 75.2979 42.0322C75.2979 42.7842 75.5508 43.4404 76.0566 44.001ZM83.3369 39.6602C84.6813 38.9036 85.971 38.1859 87.2061 37.5068C88.2497 37.9762 89.2454 38.3203 90.1934 38.5391L88.293 39.8584C88.0013 39.7946 87.7279 39.6989 87.4727 39.5713C87.222 39.4391 87.001 39.3503 86.8096 39.3047C86.6227 39.2591 86.4541 39.2363 86.3037 39.2363C86.1579 39.2363 86.0257 39.3092 85.9072 39.4551C85.7933 39.6009 85.7363 39.7354 85.7363 39.8584C85.7363 39.9814 85.7386 40.0658 85.7432 40.1113L85.7363 41.9775L88.2314 40.4121C89.348 41.4147 90.3848 42.5791 91.3418 43.9053C90.959 45.0173 90.5146 46.0905 90.0088 47.125C89.5029 48.1549 88.8558 49.1051 88.0674 49.9756C87.721 50.3538 87.3906 50.543 87.0762 50.543C86.8893 50.543 86.7207 50.4837 86.5703 50.3652C86.4199 50.2513 86.2878 50.1396 86.1738 50.0303C86.0599 49.9255 85.9414 49.8206 85.8184 49.7158C87.0898 49.4059 87.9762 48.7679 88.4775 47.8018C88.8239 47.1318 88.9971 46.4642 88.9971 45.7988C88.9971 45.5026 88.9538 45.1654 88.8672 44.7871C88.7806 44.4043 88.4889 43.8232 87.9922 43.0439C87.6823 42.5518 87.3177 42.3057 86.8984 42.3057C86.6478 42.3057 86.3789 42.3923 86.0918 42.5654C86.0143 42.611 85.8958 42.6862 85.7363 42.791L85.7295 44.8486C85.7204 45.0309 85.766 45.1517 85.8662 45.2109C85.971 45.2656 86.1009 45.3203 86.2559 45.375C86.4154 45.4297 86.625 45.5003 86.8848 45.5869C87.1491 45.6689 87.4658 45.7122 87.835 45.7168L86.3311 47.7881C85.137 47.5192 84.1117 47.166 83.2549 46.7285C83.5739 45.498 83.7334 44.2949 83.7334 43.1191C83.7334 41.9388 83.6012 40.7858 83.3369 39.6602ZM91.5537 43.8027L93.3311 41.8682L94.9375 43.3516L93.1807 45.1016C92.734 44.7233 92.1917 44.2904 91.5537 43.8027ZM93.6045 41.5742L95.6895 39.3047C95.7487 39.6556 95.8945 40.002 96.127 40.3438C96.3639 40.6855 96.6351 41.0251 96.9404 41.3623L95.2246 43.0713L93.6045 41.5742ZM97.2275 41.6494C97.5146 41.9639 97.8086 42.276 98.1094 42.5859C98.4147 42.8958 98.6859 43.2057 98.9229 43.5156L97.4873 45.1562L95.5186 43.3447L97.2275 41.6494ZM95.1768 47.7471C95.1768 47.1637 94.6117 46.3708 93.4814 45.3682L95.2314 43.625L97.2275 45.457L95.1768 47.7881C95.1768 47.7744 95.1768 47.7607 95.1768 47.7471Z" fill="white"/>
<path d="M167.75 67.3125C167.75 67.3125 173.521 56.3333 185.062 34.375C194.854 37.125 203.958 38.5 212.375 38.5C220.791 38.5 228.583 37.6875 235.75 36.0625C232.75 42.1042 231.25 47.4792 231.25 52.1875C231.25 52.9375 231.375 54.7083 231.625 57.5C231.916 60.25 232.062 63.8958 232.062 68.4375C232.062 86.6042 228.25 102.333 220.625 115.625C211.125 132.208 196.687 145.896 177.312 156.688C175.687 155.438 174.021 154.188 172.312 152.938C170.604 151.729 168.958 150.5 167.375 149.25C172.708 148.208 177.771 146.833 182.562 145.125C187.396 143.417 191.75 140.375 195.625 136C204.083 126.458 209.521 109 211.937 83.625C210.062 83.5417 207.771 83.5 205.062 83.5C198.604 83.5 191.104 84.5417 182.562 86.625C184.521 82.9583 186.479 79.2917 188.437 75.625C190.396 71.9583 192.396 68.25 194.437 64.5C200.062 66.8333 206.416 68.0417 213.5 68.125C214.25 62.0833 215.291 57.5417 216.625 54.5C214.583 54.4167 212.604 54.375 210.687 54.375C203.187 54.375 195.958 55.1667 189 56.75C182.041 58.3333 174.958 61.8542 167.75 67.3125ZM242.125 81.9375C251.833 75.4375 259.896 69.5417 266.312 64.25C269.521 65.625 272.75 68.0833 276 71.625C283.041 79.1667 287.208 87.0417 288.5 95.25C288.666 96.2083 288.75 97.125 288.75 98C288.75 100.75 287.979 102.979 286.437 104.688L265.687 131.125L238.937 117.938C241.771 112.062 243.187 106.979 243.187 102.688L243.062 88.125C242.937 85.125 242.625 83.0625 242.125 81.9375ZM258.937 79.75L258.75 106.312C259.125 108.354 260.562 109.958 263.062 111.125C265.562 112.25 267.208 112.812 268 112.812C268.833 112.812 269.396 112.771 269.687 112.688C273.354 111.854 275.187 109.542 275.187 105.75C275.187 104.875 275.083 103.896 274.875 102.812C273.458 95.9375 271.396 90.75 268.687 87.25C266.021 83.7083 262.771 81.2083 258.937 79.75ZM316.375 73.625L323.687 64.5L343.625 78.9375L341.75 86.3125L340.937 106.438C340.937 106.562 340.937 106.688 340.937 106.812C340.937 108.854 341.562 110.542 342.812 111.875C344.062 113.167 345.479 114.146 347.062 114.812L334.562 130.062C331.479 127.646 329.104 125.5 327.437 123.625C325.812 121.75 325 117.896 325 112.062C325 111.646 325 111.208 325 110.75L325.437 87.625C325.437 85.875 322.771 82.9583 317.437 78.875L314.937 82.8125L313.75 106.438C313.75 106.562 313.75 106.688 313.75 106.812C313.75 108.854 314.375 110.542 315.625 111.875C316.875 113.167 318.312 114.146 319.937 114.812L307.437 130.062L294.25 119.375C296.625 116.5 297.812 113.625 297.812 110.75L298.312 82.375C298.312 80.375 296.771 78.375 293.687 76.375L303.125 64.5L316.375 73.625ZM381.75 130.062L351.812 118.125C352.937 111.875 353.5 105.375 353.5 98.625C353.5 91.8333 352.854 84.75 351.562 77.375L373.125 64.6875V64.5L373.25 64.5625H373.312L397.625 82L372.312 108.625C374.021 110.667 375.916 111.792 378 112C380.083 112.208 381.791 112.312 383.125 112.312C384.5 112.312 386.104 112.25 387.937 112.125C389.812 111.958 392.104 111.833 394.812 111.75C392.604 114.833 390.416 117.896 388.25 120.938C386.083 123.979 383.916 127.021 381.75 130.062ZM371.375 81.375C368.958 81.375 367.75 84.6667 367.75 91.25C367.75 95 368.375 98.75 369.625 102.5C369.625 102.875 369.687 103.188 369.812 103.438L379.875 92.8125C380.583 92.0625 380.937 91.3125 380.937 90.5625C380.937 89.8125 380.562 88.8542 379.812 87.6875C379.104 86.5208 378.375 85.5625 377.625 84.8125C375 82.5208 372.916 81.375 371.375 81.375ZM412.875 100.625C413.208 96.75 413.375 93.0625 413.375 89.5625C413.375 86.0625 413.229 82.75 412.937 79.625C412.354 73.125 410.166 68 406.375 64.25C416.125 63.7917 425.479 61.7917 434.437 58.25C425.354 53.7083 414.479 51.4375 401.812 51.4375C401.146 51.4375 400.479 51.4375 399.812 51.4375L420.375 36.0625C439.583 39.0208 453.833 45.8333 463.125 56.5C472.458 67.1667 477.479 81.2083 478.187 98.625L441.375 130.062C429.5 124.062 415.416 119.083 399.125 115.125L412.875 100.625ZM437.375 59.875C436.083 62.25 435.062 64.5417 434.312 66.75C433.562 68.9167 433.187 71 433.187 73C433.187 75 433.208 77.5417 433.25 80.625C433.333 83.6667 433.479 86.5417 433.687 89.25C433.896 91.9583 434.625 95.1458 435.875 98.8125C435 98.7292 434.146 98.6875 433.312 98.6875C429.104 98.6875 425.104 99.5417 421.312 101.25C431.312 108.542 439.083 112.188 444.625 112.188C446.916 112.188 448.833 111.542 450.375 110.25C455.083 106.292 457.437 100.583 457.437 93.125C457.437 86.5 455.708 80.2917 452.25 74.5C448.791 68.6667 443.833 63.7917 437.375 59.875ZM512.375 130.062L482.437 118.125C483.562 111.875 484.125 105.375 484.125 98.625C484.125 91.8333 483.479 84.75 482.187 77.375L503.75 64.6875V64.5L503.875 64.5625H503.937L528.25 82L502.937 108.625C504.646 110.667 506.541 111.792 508.625 112C510.708 112.208 512.416 112.312 513.75 112.312C515.125 112.312 516.729 112.25 518.562 112.125C520.437 111.958 522.729 111.833 525.437 111.75C523.229 114.833 521.041 117.896 518.875 120.938C516.708 123.979 514.541 127.021 512.375 130.062ZM502 81.375C499.583 81.375 498.375 84.6667 498.375 91.25C498.375 95 499 98.75 500.25 102.5C500.25 102.875 500.312 103.188 500.437 103.438L510.5 92.8125C511.208 92.0625 511.562 91.3125 511.562 90.5625C511.562 89.8125 511.187 88.8542 510.437 87.6875C509.729 86.5208 509 85.5625 508.25 84.8125C505.625 82.5208 503.541 81.375 502 81.375ZM555.687 147.688C548.562 148.812 541.25 151.875 533.75 156.875L530.625 153.5C531.875 152.75 533.583 150.208 535.75 145.875C537.958 141.583 539.062 137.708 539.062 134.25L539.25 121.438L530.375 117.938C531.791 115.146 533.333 112.688 535 110.562C536.708 108.438 538.166 106.062 539.375 103.438L539.437 90.625C539.437 87.2917 538.062 84.6458 535.312 82.6875C532.604 80.7292 530.708 79.375 529.625 78.625L543.625 64.25L555.625 75.1875L564.437 64.25C567.646 65.625 570.875 68.0833 574.125 71.625C581.166 79.1667 585.333 87.0417 586.625 95.25C586.791 96.2083 586.875 97.125 586.875 98C586.875 100.75 586.104 102.979 584.562 104.688L563.812 131.125L555 127.625L554.937 130.062C554.937 130.396 554.937 130.854 554.937 131.438C554.937 131.979 555.187 137.396 555.687 147.688ZM555.375 108.812C561.125 111.479 565 112.812 567 112.812C567.333 112.812 567.625 112.771 567.875 112.688C571.5 111.854 573.312 109.562 573.312 105.812C573.312 104.896 573.208 103.896 573 102.812C571.958 97.5208 570.083 93.1458 567.375 89.6875C564.666 86.2292 561.771 83.5208 558.687 81.5625C558.021 82.6875 557.375 83.8333 556.75 85C556.125 86.1667 555.812 87.625 555.812 89.375L555.375 108.812Z" fill="white"/>
</svg>
